<?xml version="1.0" encoding="UTF-8"?><svg xmlns="http://www.w3.org/2000/svg" xmlns:xlink="http://www.w3.org/1999/xlink" height="394.9" preserveAspectRatio="xMidYMid meet" version="1.0" viewBox="5.8 2.5 488.4 394.9" width="488.4" zoomAndPan="magnify"><g fill="#F9C07D" id="change1_1"><path d="M209.51,63.47c1.82-0.05,3.29-1.54,3.29-3.38c0-0.49-0.11-0.96-0.3-1.38L209.51,63.47z" fill="inherit"/><path d="M222.96,43.17c-0.25,0-0.5,0.03-0.73,0.08l-2.56,4.07c0.35,1.5,1.69,2.62,3.29,2.62 c1.87,0,3.39-1.52,3.39-3.39C226.34,44.68,224.83,43.17,222.96,43.17z" fill="inherit"/><path d="M222.96,56.71c-1.87,0-3.39,1.52-3.39,3.39c0,1.87,1.52,3.39,3.39,3.39s3.39-1.52,3.39-3.39 C226.34,58.23,224.83,56.71,222.96,56.71z" fill="inherit"/><path d="M235.21,22.6c0.4,0.16,0.83,0.26,1.29,0.26c1.87,0,3.39-1.52,3.39-3.39c0-1-0.44-1.89-1.13-2.51 L235.21,22.6z" fill="inherit"/><path d="M236.5,29.63c-1.87,0-3.39,1.52-3.39,3.39c0,1.87,1.52,3.39,3.39,3.39c1.87,0,3.39-1.52,3.39-3.39 C239.89,31.14,238.37,29.63,236.5,29.63z" fill="inherit"/><path d="M236.5,43.17c-1.87,0-3.39,1.52-3.39,3.39c0,1.87,1.52,3.39,3.39,3.39c1.87,0,3.39-1.52,3.39-3.39 C239.89,44.68,238.37,43.17,236.5,43.17z" fill="inherit"/><path d="M236.5,56.71c-1.87,0-3.39,1.52-3.39,3.39c0,1.87,1.52,3.39,3.39,3.39c1.87,0,3.39-1.52,3.39-3.39 C239.89,58.23,238.37,56.71,236.5,56.71z" fill="inherit"/><path d="M250.04,2.55c-1.87,0-3.39,1.52-3.39,3.39c0,1.87,1.52,3.39,3.39,3.39c1.87,0,3.39-1.52,3.39-3.39 C253.43,4.06,251.91,2.55,250.04,2.55z" fill="inherit"/><path d="M250.04,16.08c-1.87,0-3.39,1.52-3.39,3.39c0,1.87,1.52,3.39,3.39,3.39c1.87,0,3.39-1.52,3.39-3.39 C253.43,17.6,251.91,16.08,250.04,16.08z" fill="inherit"/><path d="M250.04,29.63c-1.87,0-3.39,1.52-3.39,3.39c0,1.87,1.52,3.39,3.39,3.39c1.87,0,3.39-1.52,3.39-3.39 C253.43,31.14,251.91,29.63,250.04,29.63z" fill="inherit"/><path d="M250.04,43.17c-1.87,0-3.39,1.52-3.39,3.39c0,1.87,1.52,3.39,3.39,3.39c1.87,0,3.39-1.52,3.39-3.39 C253.43,44.68,251.91,43.17,250.04,43.17z" fill="inherit"/><path d="M250.04,56.71c-1.87,0-3.39,1.52-3.39,3.39c0,1.87,1.52,3.39,3.39,3.39c1.87,0,3.39-1.52,3.39-3.39 C253.43,58.23,251.91,56.71,250.04,56.71z" fill="inherit"/><path d="M171.86,123.37l-3.58,5.7c0.56,0.4,1.24,0.65,1.98,0.65c1.87,0,3.39-1.52,3.39-3.39 C173.64,125.05,172.92,123.95,171.86,123.37z" fill="inherit"/><path d="M185.05,102.39c1.25-0.5,2.13-1.71,2.13-3.14c0-0.07-0.02-0.14-0.02-0.22L185.05,102.39z" fill="inherit"/><circle cx="183.8" cy="112.79" fill="inherit" r="3.39"/><path d="M183.8,122.95c-1.87,0-3.39,1.52-3.39,3.39s1.52,3.39,3.39,3.39c1.87,0,3.39-1.52,3.39-3.39 S185.67,122.95,183.8,122.95z" fill="inherit"/><path d="M197.42,82.71l-3.58,5.69c0.57,0.43,1.26,0.69,2.03,0.69c1.87,0,3.39-1.52,3.39-3.39 C199.26,84.4,198.51,83.28,197.42,82.71z" fill="inherit"/><path d="M195.87,95.86c-1.87,0-3.39,1.52-3.39,3.39c0,1.87,1.52,3.39,3.39,3.39c1.87,0,3.39-1.52,3.39-3.39 C199.26,97.38,197.74,95.86,195.87,95.86z" fill="inherit"/><path d="M195.87,109.4c-1.87,0-3.39,1.52-3.39,3.39c0,1.87,1.52,3.39,3.39,3.39c1.87,0,3.39-1.52,3.39-3.39 C199.26,110.92,197.74,109.4,195.87,109.4z" fill="inherit"/><circle cx="195.87" cy="126.34" fill="inherit" r="3.39"/><path d="M209.42,68.78c-1.87,0-3.39,1.52-3.39,3.39c0,1.87,1.52,3.39,3.39,3.39c1.87,0,3.39-1.52,3.39-3.39 C212.8,70.3,211.29,68.78,209.42,68.78z" fill="inherit"/><path d="M209.42,82.32c-1.87,0-3.39,1.52-3.39,3.39c0,1.87,1.52,3.39,3.39,3.39c1.87,0,3.39-1.52,3.39-3.39 C212.8,83.84,211.29,82.32,209.42,82.32z" fill="inherit"/><path d="M209.42,95.86c-1.87,0-3.39,1.52-3.39,3.39s1.52,3.39,3.39,3.39c1.87,0,3.39-1.52,3.39-3.39 S211.29,95.86,209.42,95.86z" fill="inherit"/><path d="M209.42,109.4c-1.87,0-3.39,1.52-3.39,3.39s1.52,3.39,3.39,3.39c1.87,0,3.39-1.52,3.39-3.39 S211.29,109.4,209.42,109.4z" fill="inherit"/><path d="M209.42,122.95c-1.87,0-3.39,1.52-3.39,3.39c0,1.87,1.52,3.39,3.39,3.39c1.87,0,3.39-1.52,3.39-3.39 C212.8,124.46,211.29,122.95,209.42,122.95z" fill="inherit"/><path d="M222.96,68.78c-1.87,0-3.39,1.52-3.39,3.39c0,1.87,1.52,3.39,3.39,3.39s3.39-1.52,3.39-3.39 C226.34,70.3,224.83,68.78,222.96,68.78z" fill="inherit"/><path d="M222.96,82.32c-1.87,0-3.39,1.52-3.39,3.39c0,1.87,1.52,3.39,3.39,3.39s3.39-1.52,3.39-3.39 C226.34,83.84,224.83,82.32,222.96,82.32z" fill="inherit"/><path d="M222.96,95.87c-1.87,0-3.39,1.52-3.39,3.39c0,1.87,1.52,3.39,3.39,3.39s3.39-1.52,3.39-3.39 C226.34,97.38,224.83,95.87,222.96,95.87z" fill="inherit"/><path d="M222.96,109.41c-1.87,0-3.39,1.52-3.39,3.39c0,1.87,1.52,3.39,3.39,3.39s3.39-1.52,3.39-3.39 C226.34,110.92,224.83,109.41,222.96,109.41z" fill="inherit"/><path d="M222.96,122.95c-1.87,0-3.39,1.52-3.39,3.39c0,1.87,1.52,3.39,3.39,3.39s3.39-1.52,3.39-3.39 C226.34,124.47,224.83,122.95,222.96,122.95z" fill="inherit"/><path d="M236.5,68.78c-1.87,0-3.39,1.52-3.39,3.39c0,1.87,1.52,3.39,3.39,3.39c1.87,0,3.39-1.52,3.39-3.39 C239.89,70.3,238.37,68.78,236.5,68.78z" fill="inherit"/><path d="M236.5,82.32c-1.87,0-3.39,1.52-3.39,3.39s1.52,3.39,3.39,3.39c1.87,0,3.39-1.52,3.39-3.39 S238.37,82.32,236.5,82.32z" fill="inherit"/><path d="M236.5,95.86c-1.87,0-3.39,1.52-3.39,3.39c0,1.87,1.52,3.39,3.39,3.39c1.87,0,3.39-1.52,3.39-3.39 C239.89,97.38,238.37,95.86,236.5,95.86z" fill="inherit"/><path d="M236.5,109.4c-1.87,0-3.39,1.52-3.39,3.39c0,1.87,1.52,3.39,3.39,3.39c1.87,0,3.39-1.52,3.39-3.39 C239.89,110.92,238.37,109.4,236.5,109.4z" fill="inherit"/><path d="M236.5,122.95c-1.87,0-3.39,1.52-3.39,3.39s1.52,3.39,3.39,3.39c1.87,0,3.39-1.52,3.39-3.39 S238.37,122.95,236.5,122.95z" fill="inherit"/><path d="M250.04,68.78c-1.87,0-3.39,1.52-3.39,3.39c0,1.87,1.52,3.39,3.39,3.39c1.87,0,3.39-1.52,3.39-3.39 C253.43,70.3,251.91,68.78,250.04,68.78z" fill="inherit"/><circle cx="250.04" cy="85.71" fill="inherit" r="3.39"/><path d="M250.04,95.86c-1.87,0-3.39,1.52-3.39,3.39c0,1.87,1.52,3.39,3.39,3.39c1.87,0,3.39-1.52,3.39-3.39 C253.43,97.38,251.91,95.86,250.04,95.86z" fill="inherit"/><path d="M250.04,109.4c-1.87,0-3.39,1.52-3.39,3.39c0,1.87,1.52,3.39,3.39,3.39c1.87,0,3.39-1.52,3.39-3.39 C253.43,110.92,251.91,109.4,250.04,109.4z" fill="inherit"/><circle cx="250.04" cy="126.34" fill="inherit" r="3.39"/><path d="M130.05,189.89l-3.26,5.19c0.6,0.93,1.65,1.54,2.83,1.54c1.87,0,3.39-1.52,3.39-3.39 C133.01,191.51,131.72,190.1,130.05,189.89z" fill="inherit"/><path d="M142.87,169.5c0.1,0.01,0.2,0.03,0.3,0.03c1.87,0,3.39-1.52,3.39-3.39c0-0.64-0.19-1.22-0.49-1.73 L142.87,169.5z" fill="inherit"/><path d="M143.17,176.3c-1.87,0-3.39,1.52-3.39,3.39s1.52,3.39,3.39,3.39c1.87,0,3.39-1.52,3.39-3.39 S145.04,176.3,143.17,176.3z" fill="inherit"/><path d="M143.17,189.85c-1.87,0-3.39,1.52-3.39,3.39c0,1.87,1.52,3.39,3.39,3.39c1.87,0,3.39-1.52,3.39-3.39 C146.56,191.36,145.04,189.85,143.17,189.85z" fill="inherit"/><path d="M156.71,149.22c-0.44,0-0.86,0.09-1.25,0.24l-2.11,3.36c0.12,1.76,1.57,3.16,3.36,3.16 c1.87,0,3.39-1.52,3.39-3.39C160.1,150.74,158.58,149.22,156.71,149.22z" fill="inherit"/><path d="M156.71,162.76c-1.87,0-3.39,1.52-3.39,3.39c0,1.87,1.52,3.39,3.39,3.39s3.39-1.52,3.39-3.39 C160.1,164.28,158.58,162.76,156.71,162.76z" fill="inherit"/><path d="M156.71,176.3c-1.87,0-3.39,1.52-3.39,3.39c0,1.87,1.52,3.39,3.39,3.39s3.39-1.52,3.39-3.39 C160.1,177.82,158.58,176.3,156.71,176.3z" fill="inherit"/><path d="M156.71,189.85c-1.87,0-3.39,1.52-3.39,3.39c0,1.87,1.52,3.39,3.39,3.39s3.39-1.52,3.39-3.39 C160.1,191.36,158.58,189.85,156.71,189.85z" fill="inherit"/><path d="M170.26,135.68c-1.87,0-3.39,1.52-3.39,3.39s1.52,3.39,3.39,3.39s3.39-1.52,3.39-3.39 S172.13,135.68,170.26,135.68z" fill="inherit"/><path d="M170.26,149.22c-1.87,0-3.39,1.52-3.39,3.39c0,1.87,1.52,3.39,3.39,3.39s3.39-1.52,3.39-3.39 C173.64,150.73,172.13,149.22,170.26,149.22z" fill="inherit"/><path d="M170.26,162.76c-1.87,0-3.39,1.52-3.39,3.39c0,1.87,1.52,3.39,3.39,3.39s3.39-1.52,3.39-3.39 C173.64,164.28,172.13,162.76,170.26,162.76z" fill="inherit"/><path d="M170.26,176.3c-1.87,0-3.39,1.52-3.39,3.39c0,1.87,1.52,3.39,3.39,3.39s3.39-1.52,3.39-3.39 C173.64,177.82,172.13,176.3,170.26,176.3z" fill="inherit"/><path d="M170.26,189.85c-1.87,0-3.39,1.52-3.39,3.39c0,1.87,1.52,3.39,3.39,3.39s3.39-1.52,3.39-3.39 C173.64,191.36,172.13,189.85,170.26,189.85z" fill="inherit"/><path d="M183.8,135.68c-1.87,0-3.39,1.52-3.39,3.39s1.52,3.39,3.39,3.39c1.87,0,3.39-1.52,3.39-3.39 S185.67,135.68,183.8,135.68z" fill="inherit"/><path d="M183.8,149.22c-1.87,0-3.39,1.52-3.39,3.39c0,1.87,1.52,3.39,3.39,3.39c1.87,0,3.39-1.52,3.39-3.39 C187.18,150.73,185.67,149.22,183.8,149.22z" fill="inherit"/><path d="M183.8,162.76c-1.87,0-3.39,1.52-3.39,3.39c0,1.87,1.52,3.39,3.39,3.39c1.87,0,3.39-1.52,3.39-3.39 C187.18,164.28,185.67,162.76,183.8,162.76z" fill="inherit"/><path d="M183.8,176.3c-1.87,0-3.39,1.52-3.39,3.39c0,1.87,1.52,3.39,3.39,3.39c1.87,0,3.39-1.52,3.39-3.39 C187.18,177.82,185.67,176.3,183.8,176.3z" fill="inherit"/><path d="M183.8,189.85c-1.87,0-3.39,1.52-3.39,3.39c0,1.87,1.52,3.39,3.39,3.39c1.87,0,3.39-1.52,3.39-3.39 C187.18,191.36,185.67,189.85,183.8,189.85z" fill="inherit"/><circle cx="195.87" cy="139.07" fill="inherit" r="3.39"/><path d="M195.87,149.22c-1.87,0-3.39,1.52-3.39,3.39c0,1.87,1.52,3.39,3.39,3.39c1.87,0,3.39-1.52,3.39-3.39 C199.26,150.73,197.74,149.22,195.87,149.22z" fill="inherit"/><path d="M195.87,162.76c-1.87,0-3.39,1.52-3.39,3.39s1.52,3.39,3.39,3.39c1.87,0,3.39-1.52,3.39-3.39 S197.74,162.76,195.87,162.76z" fill="inherit"/><path d="M195.87,176.3c-1.87,0-3.39,1.52-3.39,3.39c0,1.87,1.52,3.39,3.39,3.39c1.87,0,3.39-1.52,3.39-3.39 C199.26,177.82,197.74,176.3,195.87,176.3z" fill="inherit"/><path d="M195.87,189.85c-1.87,0-3.39,1.52-3.39,3.39c0,1.87,1.52,3.39,3.39,3.39c1.87,0,3.39-1.52,3.39-3.39 C199.26,191.36,197.74,189.85,195.87,189.85z" fill="inherit"/><path d="M209.42,135.68c-1.87,0-3.39,1.52-3.39,3.39s1.52,3.39,3.39,3.39c1.87,0,3.39-1.52,3.39-3.39 S211.29,135.68,209.42,135.68z" fill="inherit"/><path d="M209.42,149.22c-1.87,0-3.39,1.52-3.39,3.39s1.52,3.39,3.39,3.39c1.87,0,3.39-1.52,3.39-3.39 S211.29,149.22,209.42,149.22z" fill="inherit"/><path d="M209.42,162.76c-1.87,0-3.39,1.52-3.39,3.39c0,1.87,1.52,3.39,3.39,3.39c1.87,0,3.39-1.52,3.39-3.39 C212.8,164.27,211.29,162.76,209.42,162.76z" fill="inherit"/><path d="M209.42,176.3c-1.87,0-3.39,1.52-3.39,3.39c0,1.87,1.52,3.39,3.39,3.39c1.87,0,3.39-1.52,3.39-3.39 C212.8,177.81,211.29,176.3,209.42,176.3z" fill="inherit"/><path d="M209.42,189.84c-1.87,0-3.39,1.52-3.39,3.39c0,1.87,1.52,3.39,3.39,3.39c1.87,0,3.39-1.52,3.39-3.39 C212.8,191.36,211.29,189.84,209.42,189.84z" fill="inherit"/><path d="M222.96,135.68c-1.87,0-3.39,1.52-3.39,3.39s1.52,3.39,3.39,3.39s3.39-1.52,3.39-3.39 S224.83,135.68,222.96,135.68z" fill="inherit"/><path d="M222.96,149.22c-1.87,0-3.39,1.52-3.39,3.39c0,1.87,1.52,3.39,3.39,3.39s3.39-1.52,3.39-3.39 C226.34,150.74,224.83,149.22,222.96,149.22z" fill="inherit"/><path d="M222.96,162.76c-1.87,0-3.39,1.52-3.39,3.39c0,1.87,1.52,3.39,3.39,3.39s3.39-1.52,3.39-3.39 C226.34,164.28,224.83,162.76,222.96,162.76z" fill="inherit"/><path d="M222.96,176.3c-1.87,0-3.39,1.52-3.39,3.39c0,1.87,1.52,3.39,3.39,3.39s3.39-1.52,3.39-3.39 C226.34,177.82,224.83,176.3,222.96,176.3z" fill="inherit"/><path d="M222.96,189.85c-1.87,0-3.39,1.52-3.39,3.39c0,1.87,1.52,3.39,3.39,3.39s3.39-1.52,3.39-3.39 C226.34,191.36,224.83,189.85,222.96,189.85z" fill="inherit"/><path d="M236.5,135.68c-1.87,0-3.39,1.52-3.39,3.39s1.52,3.39,3.39,3.39c1.87,0,3.39-1.52,3.39-3.39 S238.37,135.68,236.5,135.68z" fill="inherit"/><path d="M236.5,149.22c-1.87,0-3.39,1.52-3.39,3.39c0,1.87,1.52,3.39,3.39,3.39c1.87,0,3.39-1.52,3.39-3.39 C239.89,150.73,238.37,149.22,236.5,149.22z" fill="inherit"/><path d="M236.5,162.76c-1.87,0-3.39,1.52-3.39,3.39s1.52,3.39,3.39,3.39c1.87,0,3.39-1.52,3.39-3.39 S238.37,162.76,236.5,162.76z" fill="inherit"/><path d="M236.5,176.3c-1.87,0-3.39,1.52-3.39,3.39c0,1.87,1.52,3.39,3.39,3.39c1.87,0,3.39-1.52,3.39-3.39 C239.89,177.82,238.37,176.3,236.5,176.3z" fill="inherit"/><path d="M236.5,189.85c-1.87,0-3.39,1.52-3.39,3.39c0,1.87,1.52,3.39,3.39,3.39c1.87,0,3.39-1.52,3.39-3.39 C239.89,191.36,238.37,189.85,236.5,189.85z" fill="inherit"/><circle cx="250.04" cy="139.07" fill="inherit" r="3.39"/><path d="M250.04,149.22c-1.87,0-3.39,1.52-3.39,3.39c0,1.87,1.52,3.39,3.39,3.39c1.87,0,3.39-1.52,3.39-3.39 C253.43,150.73,251.91,149.22,250.04,149.22z" fill="inherit"/><path d="M250.04,162.76c-1.87,0-3.39,1.52-3.39,3.39s1.52,3.39,3.39,3.39c1.87,0,3.39-1.52,3.39-3.39 S251.91,162.76,250.04,162.76z" fill="inherit"/><path d="M250.04,176.3c-1.87,0-3.39,1.52-3.39,3.39c0,1.87,1.52,3.39,3.39,3.39c1.87,0,3.39-1.52,3.39-3.39 C253.43,177.82,251.91,176.3,250.04,176.3z" fill="inherit"/><path d="M250.04,189.85c-1.87,0-3.39,1.52-3.39,3.39c0,1.87,1.52,3.39,3.39,3.39c1.87,0,3.39-1.52,3.39-3.39 C253.43,191.36,251.91,189.85,250.04,189.85z" fill="inherit"/><path d="M263.5,22.86c0.9,0,1.7-0.35,2.31-0.92l-3.52-5.62c-1.27,0.49-2.17,1.71-2.17,3.15 C260.11,21.34,261.63,22.86,263.5,22.86z" fill="inherit"/><path d="M263.5,29.63c-1.87,0-3.39,1.52-3.39,3.39c0,1.87,1.52,3.39,3.39,3.39c1.87,0,3.39-1.52,3.39-3.39 C266.89,31.14,265.37,29.63,263.5,29.63z" fill="inherit"/><path d="M263.5,43.17c-1.87,0-3.39,1.52-3.39,3.39c0,1.87,1.52,3.39,3.39,3.39c1.87,0,3.39-1.52,3.39-3.39 C266.89,44.68,265.37,43.17,263.5,43.17z" fill="inherit"/><path d="M263.5,56.71c-1.87,0-3.39,1.52-3.39,3.39c0,1.87,1.52,3.39,3.39,3.39c1.87,0,3.39-1.52,3.39-3.39 C266.89,58.23,265.37,56.71,263.5,56.71z" fill="inherit"/><path d="M277.04,43.17c-1.87,0-3.39,1.52-3.39,3.39c0,1.87,1.52,3.39,3.39,3.39s3.39-1.52,3.39-3.39 C280.43,44.68,278.91,43.17,277.04,43.17z" fill="inherit"/><path d="M277.04,56.71c-1.87,0-3.39,1.52-3.39,3.39c0,1.87,1.52,3.39,3.39,3.39s3.39-1.52,3.39-3.39 C280.43,58.23,278.91,56.71,277.04,56.71z" fill="inherit"/><path d="M290.58,63.49c0.41,0,0.8-0.08,1.17-0.22l-3.51-5.6c-0.64,0.62-1.04,1.48-1.04,2.43 C287.2,61.97,288.71,63.49,290.58,63.49z" fill="inherit"/><path d="M263.5,68.79c-1.87,0-3.39,1.52-3.39,3.39c0,1.87,1.52,3.39,3.39,3.39c1.87,0,3.39-1.52,3.39-3.39 C266.89,70.3,265.37,68.79,263.5,68.79z" fill="inherit"/><path d="M263.5,82.32c-1.87,0-3.39,1.52-3.39,3.39s1.52,3.39,3.39,3.39c1.87,0,3.39-1.52,3.39-3.39 S265.37,82.32,263.5,82.32z" fill="inherit"/><path d="M263.5,95.87c-1.87,0-3.39,1.52-3.39,3.39c0,1.87,1.52,3.39,3.39,3.39c1.87,0,3.39-1.52,3.39-3.39 C266.89,97.38,265.37,95.87,263.5,95.87z" fill="inherit"/><path d="M263.5,109.41c-1.87,0-3.39,1.52-3.39,3.39s1.52,3.39,3.39,3.39c1.87,0,3.39-1.52,3.39-3.39 S265.37,109.41,263.5,109.41z" fill="inherit"/><path d="M263.5,122.95c-1.87,0-3.39,1.52-3.39,3.39s1.52,3.39,3.39,3.39c1.87,0,3.39-1.52,3.39-3.39 S265.37,122.95,263.5,122.95z" fill="inherit"/><path d="M277.04,68.79c-1.87,0-3.39,1.52-3.39,3.39c0,1.87,1.52,3.39,3.39,3.39s3.39-1.52,3.39-3.39 C280.43,70.3,278.91,68.79,277.04,68.79z" fill="inherit"/><path d="M277.04,82.32c-1.87,0-3.39,1.52-3.39,3.39c0,1.87,1.52,3.39,3.39,3.39s3.39-1.52,3.39-3.39 C280.43,83.84,278.91,82.32,277.04,82.32z" fill="inherit"/><path d="M277.04,95.86c-1.87,0-3.39,1.52-3.39,3.39s1.52,3.39,3.39,3.39s3.39-1.52,3.39-3.39 S278.91,95.86,277.04,95.86z" fill="inherit"/><path d="M277.04,109.4c-1.87,0-3.39,1.52-3.39,3.39c0,1.87,1.52,3.39,3.39,3.39s3.39-1.52,3.39-3.39 C280.43,110.92,278.91,109.4,277.04,109.4z" fill="inherit"/><path d="M277.04,122.95c-1.87,0-3.39,1.52-3.39,3.39c0,1.87,1.52,3.39,3.39,3.39s3.39-1.52,3.39-3.39 C280.43,124.46,278.91,122.95,277.04,122.95z" fill="inherit"/><path d="M290.58,68.79c-1.87,0-3.39,1.52-3.39,3.39c0,1.87,1.52,3.39,3.39,3.39s3.39-1.52,3.39-3.39 C293.97,70.3,292.45,68.79,290.58,68.79z" fill="inherit"/><path d="M290.58,82.33c-1.87,0-3.39,1.52-3.39,3.39c0,1.87,1.52,3.39,3.39,3.39s3.39-1.52,3.39-3.39 C293.97,83.84,292.45,82.33,290.58,82.33z" fill="inherit"/><path d="M290.58,95.87c-1.87,0-3.39,1.52-3.39,3.39s1.52,3.39,3.39,3.39s3.39-1.52,3.39-3.39 S292.45,95.87,290.58,95.87z" fill="inherit"/><path d="M290.58,109.41c-1.87,0-3.39,1.52-3.39,3.39c0,1.87,1.52,3.39,3.39,3.39s3.39-1.52,3.39-3.39 C293.97,110.92,292.45,109.41,290.58,109.41z" fill="inherit"/><path d="M290.58,122.95c-1.87,0-3.39,1.52-3.39,3.39c0,1.87,1.52,3.39,3.39,3.39s3.39-1.52,3.39-3.39 C293.97,124.47,292.45,122.95,290.58,122.95z" fill="inherit"/><path d="M304.13,89.09c1.2,0,2.25-0.63,2.85-1.57l-3.24-5.16c-1.68,0.2-2.99,1.61-2.99,3.35 C300.74,87.58,302.26,89.09,304.13,89.09z" fill="inherit"/><path d="M304.13,95.87c-1.87,0-3.39,1.52-3.39,3.39c0,1.87,1.52,3.39,3.39,3.39s3.39-1.52,3.39-3.39 C307.51,97.38,306,95.87,304.13,95.87z" fill="inherit"/><circle cx="304.13" cy="112.79" fill="inherit" r="3.39"/><path d="M304.13,122.95c-1.87,0-3.39,1.52-3.39,3.39s1.52,3.39,3.39,3.39s3.39-1.52,3.39-3.39 S306,122.95,304.13,122.95z" fill="inherit"/><path d="M316.26,102.32l-1.97-3.14c0,0.02-0.01,0.04-0.01,0.07C314.29,100.62,315.1,101.79,316.26,102.32z" fill="inherit"/><path d="M317.67,109.41c-1.87,0-3.39,1.52-3.39,3.39s1.52,3.39,3.39,3.39c1.87,0,3.39-1.52,3.39-3.39 S319.54,109.41,317.67,109.41z" fill="inherit"/><path d="M317.67,122.95c-1.87,0-3.39,1.52-3.39,3.39s1.52,3.39,3.39,3.39c1.87,0,3.39-1.52,3.39-3.39 S319.54,122.95,317.67,122.95z" fill="inherit"/><path d="M329.74,129.72c1.16,0,2.18-0.58,2.79-1.47l-3.29-5.25c-1.63,0.24-2.88,1.64-2.88,3.33 C326.36,128.2,327.87,129.72,329.74,129.72z" fill="inherit"/><path d="M263.5,135.68c-1.87,0-3.39,1.52-3.39,3.39s1.52,3.39,3.39,3.39c1.87,0,3.39-1.52,3.39-3.39 S265.37,135.68,263.5,135.68z" fill="inherit"/><path d="M263.5,149.22c-1.87,0-3.39,1.52-3.39,3.39c0,1.87,1.52,3.39,3.39,3.39c1.87,0,3.39-1.52,3.39-3.39 C266.89,150.73,265.37,149.22,263.5,149.22z" fill="inherit"/><path d="M263.5,162.76c-1.87,0-3.39,1.52-3.39,3.39c0,1.87,1.52,3.39,3.39,3.39c1.87,0,3.39-1.52,3.39-3.39 C266.89,164.28,265.37,162.76,263.5,162.76z" fill="inherit"/><path d="M263.5,176.3c-1.87,0-3.39,1.52-3.39,3.39c0,1.87,1.52,3.39,3.39,3.39c1.87,0,3.39-1.52,3.39-3.39 C266.89,177.82,265.37,176.3,263.5,176.3z" fill="inherit"/><path d="M263.5,189.85c-1.87,0-3.39,1.52-3.39,3.39c0,1.87,1.52,3.39,3.39,3.39c1.87,0,3.39-1.52,3.39-3.39 C266.89,191.36,265.37,189.85,263.5,189.85z" fill="inherit"/><path d="M277.04,135.68c-1.87,0-3.39,1.52-3.39,3.39s1.52,3.39,3.39,3.39s3.39-1.52,3.39-3.39 S278.91,135.68,277.04,135.68z" fill="inherit"/><path d="M277.04,149.22c-1.87,0-3.39,1.52-3.39,3.39c0,1.87,1.52,3.39,3.39,3.39s3.39-1.52,3.39-3.39 C280.43,150.73,278.91,149.22,277.04,149.22z" fill="inherit"/><path d="M277.04,162.76c-1.87,0-3.39,1.52-3.39,3.39c0,1.87,1.52,3.39,3.39,3.39s3.39-1.52,3.39-3.39 C280.43,164.28,278.91,162.76,277.04,162.76z" fill="inherit"/><path d="M277.04,176.3c-1.87,0-3.39,1.52-3.39,3.39s1.52,3.39,3.39,3.39s3.39-1.52,3.39-3.39 S278.91,176.3,277.04,176.3z" fill="inherit"/><path d="M277.04,189.85c-1.87,0-3.39,1.52-3.39,3.39c0,1.87,1.52,3.39,3.39,3.39s3.39-1.52,3.39-3.39 C280.43,191.36,278.91,189.85,277.04,189.85z" fill="inherit"/><path d="M290.58,135.68c-1.87,0-3.39,1.52-3.39,3.39s1.52,3.39,3.39,3.39s3.39-1.52,3.39-3.39 S292.45,135.68,290.58,135.68z" fill="inherit"/><path d="M290.58,149.22c-1.87,0-3.39,1.52-3.39,3.39c0,1.87,1.52,3.39,3.39,3.39s3.39-1.52,3.39-3.39 C293.97,150.74,292.45,149.22,290.58,149.22z" fill="inherit"/><path d="M290.58,162.76c-1.87,0-3.39,1.52-3.39,3.39c0,1.87,1.52,3.39,3.39,3.39s3.39-1.52,3.39-3.39 C293.97,164.28,292.45,162.76,290.58,162.76z" fill="inherit"/><path d="M290.58,176.3c-1.87,0-3.39,1.52-3.39,3.39c0,1.87,1.52,3.39,3.39,3.39s3.39-1.52,3.39-3.39 C293.97,177.82,292.45,176.3,290.58,176.3z" fill="inherit"/><path d="M290.58,189.85c-1.87,0-3.39,1.52-3.39,3.39c0,1.87,1.52,3.39,3.39,3.39s3.39-1.52,3.39-3.39 C293.97,191.36,292.45,189.85,290.58,189.85z" fill="inherit"/><path d="M304.13,135.68c-1.87,0-3.39,1.52-3.39,3.39s1.52,3.39,3.39,3.39s3.39-1.52,3.39-3.39 S306,135.68,304.13,135.68z" fill="inherit"/><path d="M304.13,149.22c-1.87,0-3.39,1.52-3.39,3.39c0,1.87,1.52,3.39,3.39,3.39s3.39-1.52,3.39-3.39 C307.51,150.73,306,149.22,304.13,149.22z" fill="inherit"/><path d="M304.13,162.76c-1.87,0-3.39,1.52-3.39,3.39c0,1.87,1.52,3.39,3.39,3.39s3.39-1.52,3.39-3.39 C307.51,164.28,306,162.76,304.13,162.76z" fill="inherit"/><path d="M304.13,176.3c-1.87,0-3.39,1.52-3.39,3.39c0,1.87,1.52,3.39,3.39,3.39s3.39-1.52,3.39-3.39 C307.51,177.82,306,176.3,304.13,176.3z" fill="inherit"/><path d="M304.13,189.85c-1.87,0-3.39,1.52-3.39,3.39c0,1.87,1.52,3.39,3.39,3.39s3.39-1.52,3.39-3.39 C307.51,191.36,306,189.85,304.13,189.85z" fill="inherit"/><path d="M317.67,135.68c-1.87,0-3.39,1.52-3.39,3.39s1.52,3.39,3.39,3.39c1.87,0,3.39-1.52,3.39-3.39 S319.54,135.68,317.67,135.68z" fill="inherit"/><path d="M317.67,149.22c-1.87,0-3.39,1.52-3.39,3.39c0,1.87,1.52,3.39,3.39,3.39c1.87,0,3.39-1.52,3.39-3.39 C321.06,150.73,319.54,149.22,317.67,149.22z" fill="inherit"/><path d="M317.67,162.76c-1.87,0-3.39,1.52-3.39,3.39c0,1.87,1.52,3.39,3.39,3.39c1.87,0,3.39-1.52,3.39-3.39 C321.06,164.28,319.54,162.76,317.67,162.76z" fill="inherit"/><path d="M317.67,176.3c-1.87,0-3.39,1.52-3.39,3.39c0,1.87,1.52,3.39,3.39,3.39c1.87,0,3.39-1.52,3.39-3.39 C321.06,177.82,319.54,176.3,317.67,176.3z" fill="inherit"/><path d="M317.67,189.85c-1.87,0-3.39,1.52-3.39,3.39c0,1.87,1.52,3.39,3.39,3.39c1.87,0,3.39-1.52,3.39-3.39 C321.06,191.36,319.54,189.85,317.67,189.85z" fill="inherit"/><path d="M329.74,135.68c-1.87,0-3.39,1.52-3.39,3.39s1.52,3.39,3.39,3.39c1.87,0,3.39-1.52,3.39-3.39 S331.61,135.68,329.74,135.68z" fill="inherit"/><path d="M329.74,149.22c-1.87,0-3.39,1.52-3.39,3.39c0,1.87,1.52,3.39,3.39,3.39c1.87,0,3.39-1.52,3.39-3.39 C333.13,150.73,331.61,149.22,329.74,149.22z" fill="inherit"/><path d="M329.74,162.76c-1.87,0-3.39,1.52-3.39,3.39s1.52,3.39,3.39,3.39c1.87,0,3.39-1.52,3.39-3.39 S331.61,162.76,329.74,162.76z" fill="inherit"/><path d="M329.74,176.3c-1.87,0-3.39,1.52-3.39,3.39c0,1.87,1.52,3.39,3.39,3.39c1.87,0,3.39-1.52,3.39-3.39 C333.13,177.82,331.61,176.3,329.74,176.3z" fill="inherit"/><path d="M329.74,189.85c-1.87,0-3.39,1.52-3.39,3.39c0,1.87,1.52,3.39,3.39,3.39c1.87,0,3.39-1.52,3.39-3.39 C333.13,191.36,331.61,189.85,329.74,189.85z" fill="inherit"/><path d="M340.27 140.57L340.62 141.12" fill="inherit"/><path d="M343.29,149.22c-1.87,0-3.39,1.52-3.39,3.39s1.52,3.39,3.39,3.39c1.87,0,3.39-1.52,3.39-3.39 S345.16,149.22,343.29,149.22z" fill="inherit"/><path d="M343.29,162.76c-1.87,0-3.39,1.52-3.39,3.39c0,1.87,1.52,3.39,3.39,3.39c1.87,0,3.39-1.52,3.39-3.39 C346.67,164.27,345.16,162.76,343.29,162.76z" fill="inherit"/><path d="M343.29,176.3c-1.87,0-3.39,1.52-3.39,3.39c0,1.87,1.52,3.39,3.39,3.39c1.87,0,3.39-1.52,3.39-3.39 C346.67,177.81,345.16,176.3,343.29,176.3z" fill="inherit"/><path d="M343.29,189.84c-1.87,0-3.39,1.52-3.39,3.39c0,1.87,1.52,3.39,3.39,3.39c1.87,0,3.39-1.52,3.39-3.39 C346.67,191.36,345.16,189.84,343.29,189.84z" fill="inherit"/><path d="M356.83,169.53c0.51,0,0.99-0.12,1.42-0.32l-3.56-5.67c-0.75,0.62-1.25,1.55-1.25,2.6 C353.44,168.02,354.96,169.53,356.83,169.53z" fill="inherit"/><path d="M356.83,176.3c-1.87,0-3.39,1.52-3.39,3.39c0,1.87,1.52,3.39,3.39,3.39s3.39-1.52,3.39-3.39 C360.21,177.82,358.7,176.3,356.83,176.3z" fill="inherit"/><path d="M356.83,189.85c-1.87,0-3.39,1.52-3.39,3.39c0,1.87,1.52,3.39,3.39,3.39s3.39-1.52,3.39-3.39 C360.21,191.36,358.7,189.85,356.83,189.85z" fill="inherit"/><path d="M370.37,196.62c1.67,0,3.04-1.2,3.33-2.79l-2.41-3.84c-0.29-0.08-0.59-0.14-0.91-0.14 c-1.87,0-3.39,1.52-3.39,3.39C366.99,195.1,368.5,196.62,370.37,196.62z" fill="inherit"/><path d="M89,257.55c-0.66,0-1.28,0.2-1.8,0.53l-1.54,2.45c-0.02,0.13-0.04,0.27-0.04,0.4 c0,1.87,1.52,3.39,3.39,3.39c1.87,0,3.39-1.52,3.39-3.39S90.87,257.55,89,257.55z" fill="inherit"/><path d="M104.25,230.94l-3.59,5.72c0.54,0.36,1.19,0.57,1.88,0.57c1.87,0,3.39-1.52,3.39-3.39 C105.93,232.6,105.25,231.53,104.25,230.94z" fill="inherit"/><path d="M102.54,244c-1.87,0-3.39,1.52-3.39,3.39c0,1.87,1.52,3.39,3.39,3.39s3.39-1.52,3.39-3.39 C105.93,245.52,104.41,244,102.54,244z" fill="inherit"/><path d="M102.54,257.55c-1.87,0-3.39,1.52-3.39,3.39c0,1.87,1.52,3.39,3.39,3.39s3.39-1.52,3.39-3.39 C105.93,259.06,104.41,257.55,102.54,257.55z" fill="inherit"/><path d="M117.53,209.82c1.14-0.54,1.94-1.7,1.94-3.05c0-0.01,0-0.02,0-0.03L117.53,209.82z" fill="inherit"/><path d="M116.08,216.92c-1.87,0-3.39,1.52-3.39,3.39c0,1.87,1.52,3.39,3.39,3.39c1.87,0,3.39-1.52,3.39-3.39 C119.47,218.43,117.95,216.92,116.08,216.92z" fill="inherit"/><path d="M116.08,230.46c-1.87,0-3.39,1.52-3.39,3.39c0,1.87,1.52,3.39,3.39,3.39c1.87,0,3.39-1.52,3.39-3.39 C119.47,231.98,117.95,230.46,116.08,230.46z" fill="inherit"/><path d="M116.08,244c-1.87,0-3.39,1.52-3.39,3.39c0,1.87,1.52,3.39,3.39,3.39c1.87,0,3.39-1.52,3.39-3.39 C119.47,245.52,117.95,244,116.08,244z" fill="inherit"/><path d="M116.08,257.55c-1.87,0-3.39,1.52-3.39,3.39c0,1.87,1.52,3.39,3.39,3.39c1.87,0,3.39-1.52,3.39-3.39 C119.47,259.06,117.95,257.55,116.08,257.55z" fill="inherit"/><path d="M49.74,317.66c0.03,0,0.06,0.01,0.1,0.01c1.87,0,3.39-1.52,3.39-3.39c0-0.56-0.15-1.08-0.39-1.55 L49.74,317.66z" fill="inherit"/><path d="M49.84,324.44c-1.87,0-3.39,1.52-3.39,3.39c0,1.87,1.52,3.39,3.39,3.39c1.87,0,3.39-1.52,3.39-3.39 C53.23,325.96,51.71,324.44,49.84,324.44z" fill="inherit"/><path d="M62.47,297.41l-3.32,5.28c0.61,0.87,1.62,1.44,2.76,1.44c1.87,0,3.39-1.52,3.39-3.39 C65.3,299.06,64.07,297.68,62.47,297.41z" fill="inherit"/><path d="M61.91,310.9c-1.87,0-3.39,1.52-3.39,3.39s1.52,3.39,3.39,3.39c1.87,0,3.39-1.52,3.39-3.39 S63.78,310.9,61.91,310.9z" fill="inherit"/><circle cx="61.91" cy="327.83" fill="inherit" r="3.39"/><path d="M75.28,277.03c0.06,0,0.12,0.02,0.18,0.02c1.87,0,3.39-1.52,3.39-3.39c0-0.59-0.16-1.13-0.43-1.62 L75.28,277.03z" fill="inherit"/><path d="M75.46,283.81c-1.87,0-3.39,1.52-3.39,3.39c0,1.87,1.52,3.39,3.39,3.39c1.87,0,3.39-1.52,3.39-3.39 C78.84,285.33,77.33,283.81,75.46,283.81z" fill="inherit"/><circle cx="75.46" cy="300.74" fill="inherit" r="3.39"/><circle cx="75.46" cy="314.28" fill="inherit" r="3.39"/><path d="M75.46,324.44c-1.87,0-3.39,1.52-3.39,3.39s1.52,3.39,3.39,3.39c1.87,0,3.39-1.52,3.39-3.39 S77.33,324.44,75.46,324.44z" fill="inherit"/><path d="M89,270.28c-1.87,0-3.39,1.52-3.39,3.39c0,1.87,1.52,3.39,3.39,3.39c1.87,0,3.39-1.52,3.39-3.39 C92.38,271.79,90.87,270.28,89,270.28z" fill="inherit"/><path d="M89,283.82c-1.87,0-3.39,1.52-3.39,3.39c0,1.87,1.52,3.39,3.39,3.39c1.87,0,3.39-1.52,3.39-3.39 C92.38,285.33,90.87,283.82,89,283.82z" fill="inherit"/><path d="M89,297.36c-1.87,0-3.39,1.52-3.39,3.39c0,1.87,1.52,3.39,3.39,3.39c1.87,0,3.39-1.52,3.39-3.39 C92.38,298.87,90.87,297.36,89,297.36z" fill="inherit"/><path d="M89,310.9c-1.87,0-3.39,1.52-3.39,3.39c0,1.87,1.52,3.39,3.39,3.39c1.87,0,3.39-1.52,3.39-3.39 C92.38,312.41,90.87,310.9,89,310.9z" fill="inherit"/><path d="M89,324.44c-1.87,0-3.39,1.52-3.39,3.39c0,1.87,1.52,3.39,3.39,3.39c1.87,0,3.39-1.52,3.39-3.39 C92.38,325.96,90.87,324.44,89,324.44z" fill="inherit"/><path d="M102.54,270.28c-1.87,0-3.39,1.52-3.39,3.39c0,1.87,1.52,3.39,3.39,3.39s3.39-1.52,3.39-3.39 C105.93,271.79,104.41,270.28,102.54,270.28z" fill="inherit"/><path d="M102.54,283.81c-1.87,0-3.39,1.52-3.39,3.39c0,1.87,1.52,3.39,3.39,3.39s3.39-1.52,3.39-3.39 C105.93,285.33,104.41,283.81,102.54,283.81z" fill="inherit"/><path d="M102.54,297.36c-1.87,0-3.39,1.52-3.39,3.39s1.52,3.39,3.39,3.39s3.39-1.52,3.39-3.39 S104.41,297.36,102.54,297.36z" fill="inherit"/><path d="M102.54,310.9c-1.87,0-3.39,1.52-3.39,3.39s1.52,3.39,3.39,3.39s3.39-1.52,3.39-3.39 S104.41,310.9,102.54,310.9z" fill="inherit"/><path d="M102.54,324.44c-1.87,0-3.39,1.52-3.39,3.39s1.52,3.39,3.39,3.39s3.39-1.52,3.39-3.39 S104.41,324.44,102.54,324.44z" fill="inherit"/><path d="M116.08,270.28c-1.87,0-3.39,1.52-3.39,3.39c0,1.87,1.52,3.39,3.39,3.39c1.87,0,3.39-1.52,3.39-3.39 C119.47,271.79,117.95,270.28,116.08,270.28z" fill="inherit"/><path d="M116.08,283.81c-1.87,0-3.39,1.52-3.39,3.39c0,1.87,1.52,3.39,3.39,3.39c1.87,0,3.39-1.52,3.39-3.39 C119.47,285.33,117.95,283.81,116.08,283.81z" fill="inherit"/><path d="M116.08,297.36c-1.87,0-3.39,1.52-3.39,3.39s1.52,3.39,3.39,3.39c1.87,0,3.39-1.52,3.39-3.39 S117.95,297.36,116.08,297.36z" fill="inherit"/><path d="M116.08,310.9c-1.87,0-3.39,1.52-3.39,3.39s1.52,3.39,3.39,3.39c1.87,0,3.39-1.52,3.39-3.39 S117.95,310.9,116.08,310.9z" fill="inherit"/><path d="M116.08,324.44c-1.87,0-3.39,1.52-3.39,3.39s1.52,3.39,3.39,3.39c1.87,0,3.39-1.52,3.39-3.39 S117.95,324.44,116.08,324.44z" fill="inherit"/><path d="M129.63,203.38c-1.87,0-3.39,1.52-3.39,3.39c0,1.87,1.52,3.39,3.39,3.39c1.87,0,3.39-1.52,3.39-3.39 C133.01,204.9,131.5,203.38,129.63,203.38z" fill="inherit"/><path d="M129.63,216.92c-1.87,0-3.39,1.52-3.39,3.39s1.52,3.39,3.39,3.39c1.87,0,3.39-1.52,3.39-3.39 S131.5,216.92,129.63,216.92z" fill="inherit"/><path d="M129.63,230.46c-1.87,0-3.39,1.52-3.39,3.39c0,1.87,1.52,3.39,3.39,3.39c1.87,0,3.39-1.52,3.39-3.39 C133.01,231.98,131.5,230.46,129.63,230.46z" fill="inherit"/><path d="M129.63,244c-1.87,0-3.39,1.52-3.39,3.39c0,1.87,1.52,3.39,3.39,3.39c1.87,0,3.39-1.52,3.39-3.39 C133.01,245.52,131.5,244,129.63,244z" fill="inherit"/><circle cx="129.63" cy="260.93" fill="inherit" r="3.39"/><path d="M143.17,203.38c-1.87,0-3.39,1.52-3.39,3.39c0,1.87,1.52,3.39,3.39,3.39c1.87,0,3.39-1.52,3.39-3.39 C146.56,204.9,145.04,203.38,143.17,203.38z" fill="inherit"/><path d="M143.17,216.92c-1.87,0-3.39,1.52-3.39,3.39s1.52,3.39,3.39,3.39c1.87,0,3.39-1.52,3.39-3.39 S145.04,216.92,143.17,216.92z" fill="inherit"/><path d="M143.17,230.46c-1.87,0-3.39,1.52-3.39,3.39c0,1.87,1.52,3.39,3.39,3.39c1.87,0,3.39-1.52,3.39-3.39 C146.56,231.98,145.04,230.46,143.17,230.46z" fill="inherit"/><path d="M143.17,244c-1.87,0-3.39,1.52-3.39,3.39c0,1.87,1.52,3.39,3.39,3.39c1.87,0,3.39-1.52,3.39-3.39 C146.56,245.51,145.04,244,143.17,244z" fill="inherit"/><path d="M143.17,257.54c-1.87,0-3.39,1.52-3.39,3.39c0,1.87,1.52,3.39,3.39,3.39c1.87,0,3.39-1.52,3.39-3.39 C146.56,259.06,145.04,257.54,143.17,257.54z" fill="inherit"/><path d="M156.71,203.38c-1.87,0-3.39,1.52-3.39,3.39c0,1.87,1.52,3.39,3.39,3.39s3.39-1.52,3.39-3.39 C160.1,204.9,158.58,203.38,156.71,203.38z" fill="inherit"/><path d="M156.71,216.92c-1.87,0-3.39,1.52-3.39,3.39s1.52,3.39,3.39,3.39s3.39-1.52,3.39-3.39 S158.58,216.92,156.71,216.92z" fill="inherit"/><path d="M156.71,230.46c-1.87,0-3.39,1.52-3.39,3.39c0,1.87,1.52,3.39,3.39,3.39s3.39-1.52,3.39-3.39 C160.1,231.98,158.58,230.46,156.71,230.46z" fill="inherit"/><path d="M156.71,244c-1.87,0-3.39,1.52-3.39,3.39c0,1.87,1.52,3.39,3.39,3.39s3.39-1.52,3.39-3.39 C160.1,245.52,158.58,244,156.71,244z" fill="inherit"/><path d="M156.71,257.55c-1.87,0-3.39,1.52-3.39,3.39c0,1.87,1.52,3.39,3.39,3.39s3.39-1.52,3.39-3.39 C160.1,259.06,158.58,257.55,156.71,257.55z" fill="inherit"/><path d="M170.26,203.38c-1.87,0-3.39,1.52-3.39,3.39c0,1.87,1.52,3.39,3.39,3.39s3.39-1.52,3.39-3.39 C173.64,204.9,172.13,203.38,170.26,203.38z" fill="inherit"/><path d="M170.26,216.92c-1.87,0-3.39,1.52-3.39,3.39s1.52,3.39,3.39,3.39s3.39-1.52,3.39-3.39 S172.13,216.92,170.26,216.92z" fill="inherit"/><path d="M170.26,230.46c-1.87,0-3.39,1.52-3.39,3.39c0,1.87,1.52,3.39,3.39,3.39s3.39-1.52,3.39-3.39 C173.64,231.98,172.13,230.46,170.26,230.46z" fill="inherit"/><path d="M170.26,244c-1.87,0-3.39,1.52-3.39,3.39c0,1.87,1.52,3.39,3.39,3.39s3.39-1.52,3.39-3.39 C173.64,245.52,172.13,244,170.26,244z" fill="inherit"/><path d="M170.26,257.55c-1.87,0-3.39,1.52-3.39,3.39c0,1.87,1.52,3.39,3.39,3.39s3.39-1.52,3.39-3.39 C173.64,259.06,172.13,257.55,170.26,257.55z" fill="inherit"/><path d="M183.8,203.38c-1.87,0-3.39,1.52-3.39,3.39c0,1.87,1.52,3.39,3.39,3.39c1.87,0,3.39-1.52,3.39-3.39 C187.18,204.9,185.67,203.38,183.8,203.38z" fill="inherit"/><path d="M183.8,216.92c-1.87,0-3.39,1.52-3.39,3.39s1.52,3.39,3.39,3.39c1.87,0,3.39-1.52,3.39-3.39 S185.67,216.92,183.8,216.92z" fill="inherit"/><path d="M183.8,230.46c-1.87,0-3.39,1.52-3.39,3.39c0,1.87,1.52,3.39,3.39,3.39c1.87,0,3.39-1.52,3.39-3.39 C187.18,231.98,185.67,230.46,183.8,230.46z" fill="inherit"/><path d="M183.8,244c-1.87,0-3.39,1.52-3.39,3.39c0,1.87,1.52,3.39,3.39,3.39c1.87,0,3.39-1.52,3.39-3.39 C187.18,245.52,185.67,244,183.8,244z" fill="inherit"/><circle cx="183.8" cy="260.93" fill="inherit" r="3.39"/><path d="M195.87,203.38c-1.87,0-3.39,1.52-3.39,3.39s1.52,3.39,3.39,3.39c1.87,0,3.39-1.52,3.39-3.39 S197.74,203.38,195.87,203.38z" fill="inherit"/><path d="M195.87,216.92c-1.87,0-3.39,1.52-3.39,3.39c0,1.87,1.52,3.39,3.39,3.39c1.87,0,3.39-1.52,3.39-3.39 C199.26,218.43,197.74,216.92,195.87,216.92z" fill="inherit"/><path d="M195.87,230.46c-1.87,0-3.39,1.52-3.39,3.39c0,1.87,1.52,3.39,3.39,3.39c1.87,0,3.39-1.52,3.39-3.39 C199.26,231.98,197.74,230.46,195.87,230.46z" fill="inherit"/><path d="M195.87,244c-1.87,0-3.39,1.52-3.39,3.39c0,1.87,1.52,3.39,3.39,3.39c1.87,0,3.39-1.52,3.39-3.39 C199.26,245.52,197.74,244,195.87,244z" fill="inherit"/><circle cx="195.87" cy="260.93" fill="inherit" r="3.39"/><path d="M209.42,203.38c-1.87,0-3.39,1.52-3.39,3.39s1.52,3.39,3.39,3.39c1.87,0,3.39-1.52,3.39-3.39 S211.29,203.38,209.42,203.38z" fill="inherit"/><path d="M209.42,216.92c-1.87,0-3.39,1.52-3.39,3.39c0,1.87,1.52,3.39,3.39,3.39c1.87,0,3.39-1.52,3.39-3.39 C212.8,218.43,211.29,216.92,209.42,216.92z" fill="inherit"/><path d="M209.42,230.46c-1.87,0-3.39,1.52-3.39,3.39c0,1.87,1.52,3.39,3.39,3.39c1.87,0,3.39-1.52,3.39-3.39 C212.8,231.97,211.29,230.46,209.42,230.46z" fill="inherit"/><path d="M209.42,244c-1.87,0-3.39,1.52-3.39,3.39c0,1.87,1.52,3.39,3.39,3.39c1.87,0,3.39-1.52,3.39-3.39 C212.8,245.51,211.29,244,209.42,244z" fill="inherit"/><path d="M209.42,257.54c-1.87,0-3.39,1.52-3.39,3.39c0,1.87,1.52,3.39,3.39,3.39c1.87,0,3.39-1.52,3.39-3.39 C212.8,259.06,211.29,257.54,209.42,257.54z" fill="inherit"/><path d="M222.96,203.38c-1.87,0-3.39,1.52-3.39,3.39s1.52,3.39,3.39,3.39s3.39-1.52,3.39-3.39 S224.83,203.38,222.96,203.38z" fill="inherit"/><path d="M222.96,216.92c-1.87,0-3.39,1.52-3.39,3.39s1.52,3.39,3.39,3.39s3.39-1.52,3.39-3.39 S224.83,216.92,222.96,216.92z" fill="inherit"/><path d="M222.96,230.46c-1.87,0-3.39,1.52-3.39,3.39c0,1.87,1.52,3.39,3.39,3.39s3.39-1.52,3.39-3.39 C226.34,231.98,224.83,230.46,222.96,230.46z" fill="inherit"/><path d="M222.96,244c-1.87,0-3.39,1.52-3.39,3.39c0,1.87,1.52,3.39,3.39,3.39s3.39-1.52,3.39-3.39 C226.34,245.52,224.83,244,222.96,244z" fill="inherit"/><path d="M222.96,257.55c-1.87,0-3.39,1.52-3.39,3.39s1.52,3.39,3.39,3.39s3.39-1.52,3.39-3.39 S224.83,257.55,222.96,257.55z" fill="inherit"/><path d="M236.5,203.38c-1.87,0-3.39,1.52-3.39,3.39s1.52,3.39,3.39,3.39c1.87,0,3.39-1.52,3.39-3.39 S238.37,203.38,236.5,203.38z" fill="inherit"/><path d="M236.5,216.92c-1.87,0-3.39,1.52-3.39,3.39c0,1.87,1.52,3.39,3.39,3.39c1.87,0,3.39-1.52,3.39-3.39 C239.89,218.43,238.37,216.92,236.5,216.92z" fill="inherit"/><path d="M236.5,230.46c-1.87,0-3.39,1.52-3.39,3.39c0,1.87,1.52,3.39,3.39,3.39c1.87,0,3.39-1.52,3.39-3.39 C239.89,231.98,238.37,230.46,236.5,230.46z" fill="inherit"/><path d="M236.5,244c-1.87,0-3.39,1.52-3.39,3.39c0,1.87,1.52,3.39,3.39,3.39c1.87,0,3.39-1.52,3.39-3.39 C239.89,245.52,238.37,244,236.5,244z" fill="inherit"/><path d="M236.5,257.55c-1.87,0-3.39,1.52-3.39,3.39c0,1.87,1.52,3.39,3.39,3.39c1.87,0,3.39-1.52,3.39-3.39 C239.89,259.06,238.37,257.55,236.5,257.55z" fill="inherit"/><path d="M250.04,203.38c-1.87,0-3.39,1.52-3.39,3.39s1.52,3.39,3.39,3.39c1.87,0,3.39-1.52,3.39-3.39 S251.91,203.38,250.04,203.38z" fill="inherit"/><path d="M250.04,216.92c-1.87,0-3.39,1.52-3.39,3.39c0,1.87,1.52,3.39,3.39,3.39c1.87,0,3.39-1.52,3.39-3.39 C253.43,218.43,251.91,216.92,250.04,216.92z" fill="inherit"/><path d="M250.04,230.46c-1.87,0-3.39,1.52-3.39,3.39c0,1.87,1.52,3.39,3.39,3.39c1.87,0,3.39-1.52,3.39-3.39 C253.43,231.98,251.91,230.46,250.04,230.46z" fill="inherit"/><path d="M250.04,244c-1.87,0-3.39,1.52-3.39,3.39c0,1.87,1.52,3.39,3.39,3.39c1.87,0,3.39-1.52,3.39-3.39 C253.43,245.52,251.91,244,250.04,244z" fill="inherit"/><circle cx="250.04" cy="260.93" fill="inherit" r="3.39"/><circle cx="129.63" cy="273.66" fill="inherit" r="3.39"/><circle cx="129.63" cy="287.2" fill="inherit" r="3.39"/><circle cx="129.63" cy="300.74" fill="inherit" r="3.39"/><path d="M129.63,310.9c-1.87,0-3.39,1.52-3.39,3.39s1.52,3.39,3.39,3.39c1.87,0,3.39-1.52,3.39-3.39 S131.5,310.9,129.63,310.9z" fill="inherit"/><path d="M129.63,324.44c-1.87,0-3.39,1.52-3.39,3.39c0,1.87,1.52,3.39,3.39,3.39c1.87,0,3.39-1.52,3.39-3.39 C133.01,325.96,131.5,324.44,129.63,324.44z" fill="inherit"/><path d="M143.17,270.28c-1.87,0-3.39,1.52-3.39,3.39c0,1.87,1.52,3.39,3.39,3.39c1.87,0,3.39-1.52,3.39-3.39 C146.56,271.79,145.04,270.28,143.17,270.28z" fill="inherit"/><path d="M143.17,283.81c-1.87,0-3.39,1.52-3.39,3.39c0,1.87,1.52,3.39,3.39,3.39c1.87,0,3.39-1.52,3.39-3.39 C146.56,285.33,145.04,283.81,143.17,283.81z" fill="inherit"/><path d="M143.17,297.36c-1.87,0-3.39,1.52-3.39,3.39s1.52,3.39,3.39,3.39c1.87,0,3.39-1.52,3.39-3.39 S145.04,297.36,143.17,297.36z" fill="inherit"/><path d="M143.17,310.9c-1.87,0-3.39,1.52-3.39,3.39s1.52,3.39,3.39,3.39c1.87,0,3.39-1.52,3.39-3.39 S145.04,310.9,143.17,310.9z" fill="inherit"/><path d="M143.17,324.44c-1.87,0-3.39,1.52-3.39,3.39c0,1.87,1.52,3.39,3.39,3.39c1.87,0,3.39-1.52,3.39-3.39 C146.56,325.96,145.04,324.44,143.17,324.44z" fill="inherit"/><path d="M156.71,270.28c-1.87,0-3.39,1.52-3.39,3.39c0,1.87,1.52,3.39,3.39,3.39s3.39-1.52,3.39-3.39 C160.1,271.79,158.58,270.28,156.71,270.28z" fill="inherit"/><path d="M156.71,283.82c-1.87,0-3.39,1.52-3.39,3.39c0,1.87,1.52,3.39,3.39,3.39s3.39-1.52,3.39-3.39 C160.1,285.33,158.58,283.82,156.71,283.82z" fill="inherit"/><path d="M156.71,297.36c-1.87,0-3.39,1.52-3.39,3.39c0,1.87,1.52,3.39,3.39,3.39s3.39-1.52,3.39-3.39 C160.1,298.88,158.58,297.36,156.71,297.36z" fill="inherit"/><path d="M156.71,310.9c-1.87,0-3.39,1.52-3.39,3.39c0,1.87,1.52,3.39,3.39,3.39s3.39-1.52,3.39-3.39 C160.1,312.41,158.58,310.9,156.71,310.9z" fill="inherit"/><path d="M156.71,324.44c-1.87,0-3.39,1.52-3.39,3.39c0,1.87,1.52,3.39,3.39,3.39s3.39-1.52,3.39-3.39 C160.1,325.96,158.58,324.44,156.71,324.44z" fill="inherit"/><path d="M170.26,270.28c-1.87,0-3.39,1.52-3.39,3.39c0,1.87,1.52,3.39,3.39,3.39s3.39-1.52,3.39-3.39 C173.64,271.79,172.13,270.28,170.26,270.28z" fill="inherit"/><path d="M170.26,283.81c-1.87,0-3.39,1.52-3.39,3.39c0,1.87,1.52,3.39,3.39,3.39s3.39-1.52,3.39-3.39 C173.64,285.33,172.13,283.81,170.26,283.81z" fill="inherit"/><path d="M170.26,297.36c-1.87,0-3.39,1.52-3.39,3.39s1.52,3.39,3.39,3.39s3.39-1.52,3.39-3.39 S172.13,297.36,170.26,297.36z" fill="inherit"/><path d="M170.26,310.9c-1.87,0-3.39,1.52-3.39,3.39s1.52,3.39,3.39,3.39s3.39-1.52,3.39-3.39 S172.13,310.9,170.26,310.9z" fill="inherit"/><path d="M170.26,324.44c-1.87,0-3.39,1.52-3.39,3.39c0,1.87,1.52,3.39,3.39,3.39s3.39-1.52,3.39-3.39 C173.64,325.96,172.13,324.44,170.26,324.44z" fill="inherit"/><circle cx="183.8" cy="273.66" fill="inherit" r="3.39"/><circle cx="183.8" cy="287.2" fill="inherit" r="3.39"/><circle cx="183.8" cy="300.74" fill="inherit" r="3.39"/><path d="M183.8,310.9c-1.87,0-3.39,1.52-3.39,3.39s1.52,3.39,3.39,3.39c1.87,0,3.39-1.52,3.39-3.39 S185.67,310.9,183.8,310.9z" fill="inherit"/><path d="M183.8,324.44c-1.87,0-3.39,1.52-3.39,3.39c0,1.87,1.52,3.39,3.39,3.39c1.87,0,3.39-1.52,3.39-3.39 C187.18,325.96,185.67,324.44,183.8,324.44z" fill="inherit"/><path d="M195.87,270.28c-1.87,0-3.39,1.52-3.39,3.39c0,1.87,1.52,3.39,3.39,3.39c1.87,0,3.39-1.52,3.39-3.39 C199.26,271.79,197.74,270.28,195.87,270.28z" fill="inherit"/><path d="M195.87,283.81c-1.87,0-3.39,1.52-3.39,3.39c0,1.87,1.52,3.39,3.39,3.39c1.87,0,3.39-1.52,3.39-3.39 C199.26,285.33,197.74,283.81,195.87,283.81z" fill="inherit"/><path d="M195.87,297.36c-1.87,0-3.39,1.52-3.39,3.39s1.52,3.39,3.39,3.39c1.87,0,3.39-1.52,3.39-3.39 S197.74,297.36,195.87,297.36z" fill="inherit"/><path d="M195.87,310.9c-1.87,0-3.39,1.52-3.39,3.39s1.52,3.39,3.39,3.39c1.87,0,3.39-1.52,3.39-3.39 S197.74,310.9,195.87,310.9z" fill="inherit"/><circle cx="195.87" cy="327.83" fill="inherit" r="3.39"/><path d="M209.42,270.28c-1.87,0-3.39,1.52-3.39,3.39c0,1.87,1.52,3.39,3.39,3.39c1.87,0,3.39-1.52,3.39-3.39 C212.8,271.79,211.29,270.28,209.42,270.28z" fill="inherit"/><path d="M209.42,283.81c-1.87,0-3.39,1.52-3.39,3.39c0,1.87,1.52,3.39,3.39,3.39c1.87,0,3.39-1.52,3.39-3.39 C212.8,285.33,211.29,283.81,209.42,283.81z" fill="inherit"/><path d="M209.42,297.35c-1.87,0-3.39,1.52-3.39,3.39s1.52,3.39,3.39,3.39c1.87,0,3.39-1.52,3.39-3.39 S211.29,297.35,209.42,297.35z" fill="inherit"/><path d="M209.42,310.89c-1.87,0-3.39,1.52-3.39,3.39s1.52,3.39,3.39,3.39c1.87,0,3.39-1.52,3.39-3.39 S211.29,310.89,209.42,310.89z" fill="inherit"/><path d="M209.42,324.44c-1.87,0-3.39,1.52-3.39,3.39s1.52,3.39,3.39,3.39c1.87,0,3.39-1.52,3.39-3.39 S211.29,324.44,209.42,324.44z" fill="inherit"/><path d="M222.96,270.28c-1.87,0-3.39,1.52-3.39,3.39c0,1.87,1.52,3.39,3.39,3.39s3.39-1.52,3.39-3.39 C226.34,271.79,224.83,270.28,222.96,270.28z" fill="inherit"/><path d="M222.96,283.82c-1.87,0-3.39,1.52-3.39,3.39c0,1.87,1.52,3.39,3.39,3.39s3.39-1.52,3.39-3.39 C226.34,285.33,224.83,283.82,222.96,283.82z" fill="inherit"/><path d="M222.96,297.36c-1.87,0-3.39,1.52-3.39,3.39c0,1.87,1.52,3.39,3.39,3.39s3.39-1.52,3.39-3.39 C226.34,298.87,224.83,297.36,222.96,297.36z" fill="inherit"/><path d="M222.96,310.9c-1.87,0-3.39,1.52-3.39,3.39c0,1.87,1.52,3.39,3.39,3.39s3.39-1.52,3.39-3.39 C226.34,312.41,224.83,310.9,222.96,310.9z" fill="inherit"/><path d="M222.96,324.44c-1.87,0-3.39,1.52-3.39,3.39c0,1.87,1.52,3.39,3.39,3.39s3.39-1.52,3.39-3.39 C226.34,325.96,224.83,324.44,222.96,324.44z" fill="inherit"/><path d="M236.5,270.28c-1.87,0-3.39,1.52-3.39,3.39c0,1.87,1.52,3.39,3.39,3.39c1.87,0,3.39-1.52,3.39-3.39 C239.89,271.79,238.37,270.28,236.5,270.28z" fill="inherit"/><path d="M236.5,283.81c-1.87,0-3.39,1.52-3.39,3.39c0,1.87,1.52,3.39,3.39,3.39c1.87,0,3.39-1.52,3.39-3.39 C239.89,285.33,238.37,283.81,236.5,283.81z" fill="inherit"/><path d="M236.5,297.36c-1.87,0-3.39,1.52-3.39,3.39s1.52,3.39,3.39,3.39c1.87,0,3.39-1.52,3.39-3.39 S238.37,297.36,236.5,297.36z" fill="inherit"/><path d="M236.5,310.9c-1.87,0-3.39,1.52-3.39,3.39s1.52,3.39,3.39,3.39c1.87,0,3.39-1.52,3.39-3.39 S238.37,310.9,236.5,310.9z" fill="inherit"/><path d="M236.5,324.44c-1.87,0-3.39,1.52-3.39,3.39s1.52,3.39,3.39,3.39c1.87,0,3.39-1.52,3.39-3.39 S238.37,324.44,236.5,324.44z" fill="inherit"/><path d="M250.04,270.28c-1.87,0-3.39,1.52-3.39,3.39c0,1.87,1.52,3.39,3.39,3.39c1.87,0,3.39-1.52,3.39-3.39 C253.43,271.79,251.91,270.28,250.04,270.28z" fill="inherit"/><path d="M250.04,283.81c-1.87,0-3.39,1.52-3.39,3.39c0,1.87,1.52,3.39,3.39,3.39c1.87,0,3.39-1.52,3.39-3.39 C253.43,285.33,251.91,283.81,250.04,283.81z" fill="inherit"/><path d="M250.04,297.36c-1.87,0-3.39,1.52-3.39,3.39s1.52,3.39,3.39,3.39c1.87,0,3.39-1.52,3.39-3.39 S251.91,297.36,250.04,297.36z" fill="inherit"/><path d="M250.04,310.9c-1.87,0-3.39,1.52-3.39,3.39s1.52,3.39,3.39,3.39c1.87,0,3.39-1.52,3.39-3.39 S251.91,310.9,250.04,310.9z" fill="inherit"/><circle cx="250.04" cy="327.83" fill="inherit" r="3.39"/><path d="M8.21,383.74c0.32,0.1,0.65,0.17,1,0.17c1.87,0,3.39-1.52,3.39-3.39c0-0.89-0.35-1.7-0.92-2.3L8.21,383.74z" fill="inherit"/><path d="M9.21,390.68c-1.87,0-3.39,1.52-3.39,3.39s1.52,3.39,3.39,3.39c1.87,0,3.39-1.52,3.39-3.39 S11.08,390.68,9.21,390.68z" fill="inherit"/><path d="M22.75,363.6c-1.87,0-3.39,1.52-3.39,3.39s1.52,3.39,3.39,3.39c1.87,0,3.39-1.52,3.39-3.39 S24.62,363.6,22.75,363.6z" fill="inherit"/><path d="M22.75,377.14c-1.87,0-3.39,1.52-3.39,3.39s1.52,3.39,3.39,3.39c1.87,0,3.39-1.52,3.39-3.39 S24.62,377.14,22.75,377.14z" fill="inherit"/><path d="M22.75,390.68c-1.87,0-3.39,1.52-3.39,3.39c0,1.87,1.52,3.39,3.39,3.39c1.87,0,3.39-1.52,3.39-3.39 C26.14,392.2,24.62,390.68,22.75,390.68z" fill="inherit"/><path d="M37.7,336.82l-3.56,5.66c0.59,0.49,1.33,0.8,2.16,0.8c1.87,0,3.39-1.52,3.39-3.39 C39.68,338.53,38.87,337.36,37.7,336.82z" fill="inherit"/><path d="M36.3,350.05c-1.87,0-3.39,1.52-3.39,3.39s1.52,3.39,3.39,3.39s3.39-1.52,3.39-3.39 S38.17,350.05,36.3,350.05z" fill="inherit"/><path d="M36.3,363.59c-1.87,0-3.39,1.52-3.39,3.39c0,1.87,1.52,3.39,3.39,3.39s3.39-1.52,3.39-3.39 C39.68,365.11,38.17,363.59,36.3,363.59z" fill="inherit"/><path d="M36.3,377.13c-1.87,0-3.39,1.52-3.39,3.39c0,1.87,1.52,3.39,3.39,3.39s3.39-1.52,3.39-3.39 C39.68,378.65,38.17,377.13,36.3,377.13z" fill="inherit"/><path d="M36.3,390.68c-1.87,0-3.39,1.52-3.39,3.39c0,1.87,1.52,3.39,3.39,3.39s3.39-1.52,3.39-3.39 C39.68,392.2,38.17,390.68,36.3,390.68z" fill="inherit"/><path d="M49.84,336.51c-1.87,0-3.39,1.52-3.39,3.39c0,1.87,1.52,3.39,3.39,3.39c1.87,0,3.39-1.52,3.39-3.39 C53.23,338.03,51.71,336.51,49.84,336.51z" fill="inherit"/><path d="M49.84,350.05c-1.87,0-3.39,1.52-3.39,3.39s1.52,3.39,3.39,3.39c1.87,0,3.39-1.52,3.39-3.39 S51.71,350.05,49.84,350.05z" fill="inherit"/><path d="M49.84,363.59c-1.87,0-3.39,1.52-3.39,3.39c0,1.87,1.52,3.39,3.39,3.39c1.87,0,3.39-1.52,3.39-3.39 C53.23,365.11,51.71,363.59,49.84,363.59z" fill="inherit"/><path d="M49.84,377.13c-1.87,0-3.39,1.52-3.39,3.39c0,1.87,1.52,3.39,3.39,3.39c1.87,0,3.39-1.52,3.39-3.39 C53.23,378.65,51.71,377.13,49.84,377.13z" fill="inherit"/><path d="M49.84,390.68c-1.87,0-3.39,1.52-3.39,3.39c0,1.87,1.52,3.39,3.39,3.39c1.87,0,3.39-1.52,3.39-3.39 C53.23,392.2,51.71,390.68,49.84,390.68z" fill="inherit"/><path d="M61.91,336.51c-1.87,0-3.39,1.52-3.39,3.39s1.52,3.39,3.39,3.39c1.87,0,3.39-1.52,3.39-3.39 S63.78,336.51,61.91,336.51z" fill="inherit"/><circle cx="61.91" cy="353.44" fill="inherit" r="3.39"/><path d="M61.91,363.59c-1.87,0-3.39,1.52-3.39,3.39s1.52,3.39,3.39,3.39c1.87,0,3.39-1.52,3.39-3.39 S63.78,363.59,61.91,363.59z" fill="inherit"/><circle cx="61.91" cy="380.52" fill="inherit" r="3.39"/><path d="M61.91,390.68c-1.87,0-3.39,1.52-3.39,3.39c0,1.87,1.52,3.39,3.39,3.39c1.87,0,3.39-1.52,3.39-3.39 C65.3,392.19,63.78,390.68,61.91,390.68z" fill="inherit"/><path d="M75.46,336.51c-1.87,0-3.39,1.52-3.39,3.39s1.52,3.39,3.39,3.39c1.87,0,3.39-1.52,3.39-3.39 S77.33,336.51,75.46,336.51z" fill="inherit"/><path d="M75.46,350.05c-1.87,0-3.39,1.52-3.39,3.39c0,1.87,1.52,3.39,3.39,3.39c1.87,0,3.39-1.52,3.39-3.39 C78.84,351.56,77.33,350.05,75.46,350.05z" fill="inherit"/><path d="M75.46,363.59c-1.87,0-3.39,1.52-3.39,3.39s1.52,3.39,3.39,3.39c1.87,0,3.39-1.52,3.39-3.39 S77.33,363.59,75.46,363.59z" fill="inherit"/><circle cx="75.46" cy="380.52" fill="inherit" r="3.39"/><circle cx="75.46" cy="394.06" fill="inherit" r="3.39"/><path d="M89,336.51c-1.87,0-3.39,1.52-3.39,3.39s1.52,3.39,3.39,3.39c1.87,0,3.39-1.52,3.39-3.39 S90.87,336.51,89,336.51z" fill="inherit"/><path d="M89,350.05c-1.87,0-3.39,1.52-3.39,3.39c0,1.87,1.52,3.39,3.39,3.39c1.87,0,3.39-1.52,3.39-3.39 C92.38,351.57,90.87,350.05,89,350.05z" fill="inherit"/><path d="M89,363.59c-1.87,0-3.39,1.52-3.39,3.39s1.52,3.39,3.39,3.39c1.87,0,3.39-1.52,3.39-3.39 S90.87,363.59,89,363.59z" fill="inherit"/><path d="M89,377.13c-1.87,0-3.39,1.52-3.39,3.39c0,1.87,1.52,3.39,3.39,3.39c1.87,0,3.39-1.52,3.39-3.39 C92.38,378.65,90.87,377.13,89,377.13z" fill="inherit"/><path d="M89,390.68c-1.87,0-3.39,1.52-3.39,3.39c0,1.87,1.52,3.39,3.39,3.39c1.87,0,3.39-1.52,3.39-3.39 C92.38,392.2,90.87,390.68,89,390.68z" fill="inherit"/><path d="M102.54,336.51c-1.87,0-3.39,1.52-3.39,3.39s1.52,3.39,3.39,3.39s3.39-1.52,3.39-3.39 S104.41,336.51,102.54,336.51z" fill="inherit"/><path d="M102.54,350.05c-1.87,0-3.39,1.52-3.39,3.39c0,1.87,1.52,3.39,3.39,3.39s3.39-1.52,3.39-3.39 C105.93,351.57,104.41,350.05,102.54,350.05z" fill="inherit"/><path d="M102.54,363.59c-1.87,0-3.39,1.52-3.39,3.39s1.52,3.39,3.39,3.39s3.39-1.52,3.39-3.39 S104.41,363.59,102.54,363.59z" fill="inherit"/><path d="M102.54,377.13c-1.87,0-3.39,1.52-3.39,3.39s1.52,3.39,3.39,3.39s3.39-1.52,3.39-3.39 S104.41,377.13,102.54,377.13z" fill="inherit"/><path d="M102.54,390.68c-1.87,0-3.39,1.52-3.39,3.39c0,1.87,1.52,3.39,3.39,3.39s3.39-1.52,3.39-3.39 C105.93,392.19,104.41,390.68,102.54,390.68z" fill="inherit"/><path d="M116.08,336.51c-1.87,0-3.39,1.52-3.39,3.39s1.52,3.39,3.39,3.39c1.87,0,3.39-1.52,3.39-3.39 S117.95,336.51,116.08,336.51z" fill="inherit"/><path d="M116.08,350.05c-1.87,0-3.39,1.52-3.39,3.39c0,1.87,1.52,3.39,3.39,3.39c1.87,0,3.39-1.52,3.39-3.39 C119.47,351.57,117.95,350.05,116.08,350.05z" fill="inherit"/><path d="M116.08,363.59c-1.87,0-3.39,1.52-3.39,3.39s1.52,3.39,3.39,3.39c1.87,0,3.39-1.52,3.39-3.39 S117.95,363.59,116.08,363.59z" fill="inherit"/><path d="M116.08,377.13c-1.87,0-3.39,1.52-3.39,3.39s1.52,3.39,3.39,3.39c1.87,0,3.39-1.52,3.39-3.39 S117.95,377.13,116.08,377.13z" fill="inherit"/><path d="M116.08,390.68c-1.87,0-3.39,1.52-3.39,3.39c0,1.87,1.52,3.39,3.39,3.39c1.87,0,3.39-1.52,3.39-3.39 C119.47,392.19,117.95,390.68,116.08,390.68z" fill="inherit"/><circle cx="129.63" cy="339.9" fill="inherit" r="3.39"/><path d="M129.63,350.05c-1.87,0-3.39,1.52-3.39,3.39s1.52,3.39,3.39,3.39c1.87,0,3.39-1.52,3.39-3.39 S131.5,350.05,129.63,350.05z" fill="inherit"/><path d="M129.63,363.59c-1.87,0-3.39,1.52-3.39,3.39c0,1.87,1.52,3.39,3.39,3.39c1.87,0,3.39-1.52,3.39-3.39 C133.01,365.11,131.5,363.59,129.63,363.59z" fill="inherit"/><path d="M129.63,377.13c-1.87,0-3.39,1.52-3.39,3.39c0,1.87,1.52,3.39,3.39,3.39c1.87,0,3.39-1.52,3.39-3.39 C133.01,378.65,131.5,377.13,129.63,377.13z" fill="inherit"/><path d="M129.63,390.68c-1.87,0-3.39,1.52-3.39,3.39c0,1.87,1.52,3.39,3.39,3.39c1.87,0,3.39-1.52,3.39-3.39 C133.01,392.2,131.5,390.68,129.63,390.68z" fill="inherit"/><path d="M143.17,336.51c-1.87,0-3.39,1.52-3.39,3.39c0,1.87,1.52,3.39,3.39,3.39c1.87,0,3.39-1.52,3.39-3.39 C146.56,338.03,145.04,336.51,143.17,336.51z" fill="inherit"/><path d="M143.17,350.05c-1.87,0-3.39,1.52-3.39,3.39c0,1.87,1.52,3.39,3.39,3.39c1.87,0,3.39-1.52,3.39-3.39 C146.56,351.57,145.04,350.05,143.17,350.05z" fill="inherit"/><path d="M143.17,363.59c-1.87,0-3.39,1.52-3.39,3.39s1.52,3.39,3.39,3.39c1.87,0,3.39-1.52,3.39-3.39 S145.04,363.59,143.17,363.59z" fill="inherit"/><path d="M143.17,377.13c-1.87,0-3.39,1.52-3.39,3.39s1.52,3.39,3.39,3.39c1.87,0,3.39-1.52,3.39-3.39 S145.04,377.13,143.17,377.13z" fill="inherit"/><path d="M143.17,390.68c-1.87,0-3.39,1.52-3.39,3.39s1.52,3.39,3.39,3.39c1.87,0,3.39-1.52,3.39-3.39 S145.04,390.68,143.17,390.68z" fill="inherit"/><path d="M156.71,336.51c-1.87,0-3.39,1.52-3.39,3.39c0,1.87,1.52,3.39,3.39,3.39s3.39-1.52,3.39-3.39 C160.1,338.03,158.58,336.51,156.71,336.51z" fill="inherit"/><path d="M156.71,350.05c-1.87,0-3.39,1.52-3.39,3.39c0,1.87,1.52,3.39,3.39,3.39s3.39-1.52,3.39-3.39 C160.1,351.57,158.58,350.05,156.71,350.05z" fill="inherit"/><path d="M156.71,363.6c-1.87,0-3.39,1.52-3.39,3.39s1.52,3.39,3.39,3.39s3.39-1.52,3.39-3.39 S158.58,363.6,156.71,363.6z" fill="inherit"/><path d="M156.71,377.14c-1.87,0-3.39,1.52-3.39,3.39s1.52,3.39,3.39,3.39s3.39-1.52,3.39-3.39 S158.58,377.14,156.71,377.14z" fill="inherit"/><path d="M156.71,390.68c-1.87,0-3.39,1.52-3.39,3.39c0,1.87,1.52,3.39,3.39,3.39s3.39-1.52,3.39-3.39 C160.1,392.2,158.58,390.68,156.71,390.68z" fill="inherit"/><path d="M170.26,336.51c-1.87,0-3.39,1.52-3.39,3.39c0,1.87,1.52,3.39,3.39,3.39s3.39-1.52,3.39-3.39 C173.64,338.03,172.13,336.51,170.26,336.51z" fill="inherit"/><path d="M170.26,350.05c-1.87,0-3.39,1.52-3.39,3.39s1.52,3.39,3.39,3.39s3.39-1.52,3.39-3.39 S172.13,350.05,170.26,350.05z" fill="inherit"/><path d="M170.26,363.59c-1.87,0-3.39,1.52-3.39,3.39c0,1.87,1.52,3.39,3.39,3.39s3.39-1.52,3.39-3.39 C173.64,365.11,172.13,363.59,170.26,363.59z" fill="inherit"/><path d="M170.26,377.13c-1.87,0-3.39,1.52-3.39,3.39c0,1.87,1.52,3.39,3.39,3.39s3.39-1.52,3.39-3.39 C173.64,378.65,172.13,377.13,170.26,377.13z" fill="inherit"/><path d="M170.26,390.68c-1.87,0-3.39,1.52-3.39,3.39c0,1.87,1.52,3.39,3.39,3.39s3.39-1.52,3.39-3.39 C173.64,392.2,172.13,390.68,170.26,390.68z" fill="inherit"/><circle cx="183.8" cy="339.9" fill="inherit" r="3.39"/><path d="M183.8,350.05c-1.87,0-3.39,1.52-3.39,3.39s1.52,3.39,3.39,3.39c1.87,0,3.39-1.52,3.39-3.39 S185.67,350.05,183.8,350.05z" fill="inherit"/><path d="M183.8,363.59c-1.87,0-3.39,1.52-3.39,3.39c0,1.87,1.52,3.39,3.39,3.39c1.87,0,3.39-1.52,3.39-3.39 C187.18,365.11,185.67,363.59,183.8,363.59z" fill="inherit"/><path d="M183.8,377.13c-1.87,0-3.39,1.52-3.39,3.39c0,1.87,1.52,3.39,3.39,3.39c1.87,0,3.39-1.52,3.39-3.39 C187.18,378.65,185.67,377.13,183.8,377.13z" fill="inherit"/><path d="M183.8,390.68c-1.87,0-3.39,1.52-3.39,3.39c0,1.87,1.52,3.39,3.39,3.39c1.87,0,3.39-1.52,3.39-3.39 C187.18,392.2,185.67,390.68,183.8,390.68z" fill="inherit"/><path d="M195.87,336.51c-1.87,0-3.39,1.52-3.39,3.39s1.52,3.39,3.39,3.39c1.87,0,3.39-1.52,3.39-3.39 S197.74,336.51,195.87,336.51z" fill="inherit"/><circle cx="195.87" cy="353.44" fill="inherit" r="3.39"/><path d="M195.87,363.59c-1.87,0-3.39,1.52-3.39,3.39s1.52,3.39,3.39,3.39c1.87,0,3.39-1.52,3.39-3.39 S197.74,363.59,195.87,363.59z" fill="inherit"/><circle cx="195.87" cy="380.52" fill="inherit" r="3.39"/><path d="M195.87,390.68c-1.87,0-3.39,1.52-3.39,3.39c0,1.87,1.52,3.39,3.39,3.39c1.87,0,3.39-1.52,3.39-3.39 C199.26,392.19,197.74,390.68,195.87,390.68z" fill="inherit"/><path d="M209.42,336.51c-1.87,0-3.39,1.52-3.39,3.39s1.52,3.39,3.39,3.39c1.87,0,3.39-1.52,3.39-3.39 S211.29,336.51,209.42,336.51z" fill="inherit"/><path d="M209.42,350.05c-1.87,0-3.39,1.52-3.39,3.39c0,1.87,1.52,3.39,3.39,3.39c1.87,0,3.39-1.52,3.39-3.39 C212.8,351.56,211.29,350.05,209.42,350.05z" fill="inherit"/><path d="M209.42,363.59c-1.87,0-3.39,1.52-3.39,3.39s1.52,3.39,3.39,3.39c1.87,0,3.39-1.52,3.39-3.39 S211.29,363.59,209.42,363.59z" fill="inherit"/><path d="M209.42,377.13c-1.87,0-3.39,1.52-3.39,3.39c0,1.87,1.52,3.39,3.39,3.39c1.87,0,3.39-1.52,3.39-3.39 C212.8,378.65,211.29,377.13,209.42,377.13z" fill="inherit"/><path d="M209.42,390.68c-1.87,0-3.39,1.52-3.39,3.39c0,1.87,1.52,3.39,3.39,3.39c1.87,0,3.39-1.52,3.39-3.39 C212.8,392.19,211.29,390.68,209.42,390.68z" fill="inherit"/><path d="M222.96,336.51c-1.87,0-3.39,1.52-3.39,3.39s1.52,3.39,3.39,3.39s3.39-1.52,3.39-3.39 S224.83,336.51,222.96,336.51z" fill="inherit"/><path d="M222.96,350.05c-1.87,0-3.39,1.52-3.39,3.39c0,1.87,1.52,3.39,3.39,3.39s3.39-1.52,3.39-3.39 C226.34,351.57,224.83,350.05,222.96,350.05z" fill="inherit"/><path d="M222.96,363.59c-1.87,0-3.39,1.52-3.39,3.39s1.52,3.39,3.39,3.39s3.39-1.52,3.39-3.39 S224.83,363.59,222.96,363.59z" fill="inherit"/><path d="M222.96,377.13c-1.87,0-3.39,1.52-3.39,3.39c0,1.87,1.52,3.39,3.39,3.39s3.39-1.52,3.39-3.39 C226.34,378.65,224.83,377.13,222.96,377.13z" fill="inherit"/><path d="M222.96,390.68c-1.87,0-3.39,1.52-3.39,3.39c0,1.87,1.52,3.39,3.39,3.39s3.39-1.52,3.39-3.39 C226.34,392.2,224.83,390.68,222.96,390.68z" fill="inherit"/><path d="M236.5,336.51c-1.87,0-3.39,1.52-3.39,3.39s1.52,3.39,3.39,3.39c1.87,0,3.39-1.52,3.39-3.39 S238.37,336.51,236.5,336.51z" fill="inherit"/><path d="M236.5,350.05c-1.87,0-3.39,1.52-3.39,3.39c0,1.87,1.52,3.39,3.39,3.39c1.87,0,3.39-1.52,3.39-3.39 C239.89,351.57,238.37,350.05,236.5,350.05z" fill="inherit"/><path d="M236.5,363.59c-1.87,0-3.39,1.52-3.39,3.39s1.52,3.39,3.39,3.39c1.87,0,3.39-1.52,3.39-3.39 S238.37,363.59,236.5,363.59z" fill="inherit"/><path d="M236.5,377.13c-1.87,0-3.39,1.52-3.39,3.39s1.52,3.39,3.39,3.39c1.87,0,3.39-1.52,3.39-3.39 S238.37,377.13,236.5,377.13z" fill="inherit"/><path d="M236.5,390.68c-1.87,0-3.39,1.52-3.39,3.39c0,1.87,1.52,3.39,3.39,3.39c1.87,0,3.39-1.52,3.39-3.39 C239.89,392.19,238.37,390.68,236.5,390.68z" fill="inherit"/><path d="M250.04,336.51c-1.87,0-3.39,1.52-3.39,3.39s1.52,3.39,3.39,3.39c1.87,0,3.39-1.52,3.39-3.39 S251.91,336.51,250.04,336.51z" fill="inherit"/><circle cx="250.04" cy="353.44" fill="inherit" r="3.39"/><path d="M250.04,363.59c-1.87,0-3.39,1.52-3.39,3.39s1.52,3.39,3.39,3.39c1.87,0,3.39-1.52,3.39-3.39 S251.91,363.59,250.04,363.59z" fill="inherit"/><circle cx="250.04" cy="380.52" fill="inherit" r="3.39"/><path d="M250.04,390.68c-1.87,0-3.39,1.52-3.39,3.39c0,1.87,1.52,3.39,3.39,3.39c1.87,0,3.39-1.52,3.39-3.39 C253.43,392.19,251.91,390.68,250.04,390.68z" fill="inherit"/><path d="M263.5,203.38c-1.87,0-3.39,1.52-3.39,3.39c0,1.87,1.52,3.39,3.39,3.39c1.87,0,3.39-1.52,3.39-3.39 C266.89,204.9,265.37,203.38,263.5,203.38z" fill="inherit"/><path d="M263.5,216.92c-1.87,0-3.39,1.52-3.39,3.39s1.52,3.39,3.39,3.39c1.87,0,3.39-1.52,3.39-3.39 S265.37,216.92,263.5,216.92z" fill="inherit"/><path d="M263.5,230.46c-1.87,0-3.39,1.52-3.39,3.39c0,1.87,1.52,3.39,3.39,3.39c1.87,0,3.39-1.52,3.39-3.39 C266.89,231.98,265.37,230.46,263.5,230.46z" fill="inherit"/><path d="M263.5,244c-1.87,0-3.39,1.52-3.39,3.39c0,1.87,1.52,3.39,3.39,3.39c1.87,0,3.39-1.52,3.39-3.39 C266.89,245.52,265.37,244,263.5,244z" fill="inherit"/><path d="M263.5,257.55c-1.87,0-3.39,1.52-3.39,3.39c0,1.87,1.52,3.39,3.39,3.39c1.87,0,3.39-1.52,3.39-3.39 C266.89,259.06,265.37,257.55,263.5,257.55z" fill="inherit"/><path d="M277.04,203.38c-1.87,0-3.39,1.52-3.39,3.39c0,1.87,1.52,3.39,3.39,3.39s3.39-1.52,3.39-3.39 C280.43,204.9,278.91,203.38,277.04,203.38z" fill="inherit"/><path d="M277.04,216.92c-1.87,0-3.39,1.52-3.39,3.39s1.52,3.39,3.39,3.39s3.39-1.52,3.39-3.39 S278.91,216.92,277.04,216.92z" fill="inherit"/><path d="M277.04,230.46c-1.87,0-3.39,1.52-3.39,3.39c0,1.87,1.52,3.39,3.39,3.39s3.39-1.52,3.39-3.39 C280.43,231.98,278.91,230.46,277.04,230.46z" fill="inherit"/><path d="M277.04,244c-1.87,0-3.39,1.52-3.39,3.39c0,1.87,1.52,3.39,3.39,3.39s3.39-1.52,3.39-3.39 C280.43,245.51,278.91,244,277.04,244z" fill="inherit"/><path d="M277.04,257.54c-1.87,0-3.39,1.52-3.39,3.39c0,1.87,1.52,3.39,3.39,3.39s3.39-1.52,3.39-3.39 C280.43,259.06,278.91,257.54,277.04,257.54z" fill="inherit"/><path d="M290.58,203.38c-1.87,0-3.39,1.52-3.39,3.39c0,1.87,1.52,3.39,3.39,3.39s3.39-1.52,3.39-3.39 C293.97,204.9,292.45,203.38,290.58,203.38z" fill="inherit"/><path d="M290.58,216.92c-1.87,0-3.39,1.52-3.39,3.39s1.52,3.39,3.39,3.39s3.39-1.52,3.39-3.39 S292.45,216.92,290.58,216.92z" fill="inherit"/><path d="M290.58,230.46c-1.87,0-3.39,1.52-3.39,3.39c0,1.87,1.52,3.39,3.39,3.39s3.39-1.52,3.39-3.39 C293.97,231.98,292.45,230.46,290.58,230.46z" fill="inherit"/><path d="M290.58,244c-1.87,0-3.39,1.52-3.39,3.39c0,1.87,1.52,3.39,3.39,3.39s3.39-1.52,3.39-3.39 C293.97,245.52,292.45,244,290.58,244z" fill="inherit"/><path d="M290.58,257.55c-1.87,0-3.39,1.52-3.39,3.39c0,1.87,1.52,3.39,3.39,3.39s3.39-1.52,3.39-3.39 C293.97,259.06,292.45,257.55,290.58,257.55z" fill="inherit"/><path d="M304.13,203.38c-1.87,0-3.39,1.52-3.39,3.39c0,1.87,1.52,3.39,3.39,3.39s3.39-1.52,3.39-3.39 C307.51,204.9,306,203.38,304.13,203.38z" fill="inherit"/><path d="M304.13,216.92c-1.87,0-3.39,1.52-3.39,3.39s1.52,3.39,3.39,3.39s3.39-1.52,3.39-3.39 S306,216.92,304.13,216.92z" fill="inherit"/><path d="M304.13,230.46c-1.87,0-3.39,1.52-3.39,3.39c0,1.87,1.52,3.39,3.39,3.39s3.39-1.52,3.39-3.39 C307.51,231.98,306,230.46,304.13,230.46z" fill="inherit"/><path d="M304.13,244c-1.87,0-3.39,1.52-3.39,3.39c0,1.87,1.52,3.39,3.39,3.39s3.39-1.52,3.39-3.39 C307.51,245.52,306,244,304.13,244z" fill="inherit"/><circle cx="304.13" cy="260.93" fill="inherit" r="3.39"/><path d="M317.67,203.38c-1.87,0-3.39,1.52-3.39,3.39c0,1.87,1.52,3.39,3.39,3.39c1.87,0,3.39-1.52,3.39-3.39 C321.06,204.9,319.54,203.38,317.67,203.38z" fill="inherit"/><path d="M317.67,216.92c-1.87,0-3.39,1.52-3.39,3.39s1.52,3.39,3.39,3.39c1.87,0,3.39-1.52,3.39-3.39 S319.54,216.92,317.67,216.92z" fill="inherit"/><path d="M317.67,230.46c-1.87,0-3.39,1.52-3.39,3.39c0,1.87,1.52,3.39,3.39,3.39c1.87,0,3.39-1.52,3.39-3.39 C321.06,231.98,319.54,230.46,317.67,230.46z" fill="inherit"/><path d="M317.67,244c-1.87,0-3.39,1.52-3.39,3.39c0,1.87,1.52,3.39,3.39,3.39c1.87,0,3.39-1.52,3.39-3.39 C321.06,245.52,319.54,244,317.67,244z" fill="inherit"/><path d="M317.67,257.55c-1.87,0-3.39,1.52-3.39,3.39c0,1.87,1.52,3.39,3.39,3.39c1.87,0,3.39-1.52,3.39-3.39 C321.06,259.06,319.54,257.55,317.67,257.55z" fill="inherit"/><path d="M329.74,203.38c-1.87,0-3.39,1.52-3.39,3.39s1.52,3.39,3.39,3.39c1.87,0,3.39-1.52,3.39-3.39 S331.61,203.38,329.74,203.38z" fill="inherit"/><path d="M329.74,216.92c-1.87,0-3.39,1.52-3.39,3.39c0,1.87,1.52,3.39,3.39,3.39c1.87,0,3.39-1.52,3.39-3.39 C333.13,218.43,331.61,216.92,329.74,216.92z" fill="inherit"/><path d="M329.74,230.46c-1.87,0-3.39,1.52-3.39,3.39c0,1.87,1.52,3.39,3.39,3.39c1.87,0,3.39-1.52,3.39-3.39 C333.13,231.98,331.61,230.46,329.74,230.46z" fill="inherit"/><path d="M329.74,244c-1.87,0-3.39,1.52-3.39,3.39c0,1.87,1.52,3.39,3.39,3.39c1.87,0,3.39-1.52,3.39-3.39 C333.13,245.52,331.61,244,329.74,244z" fill="inherit"/><path d="M329.74,257.55c-1.87,0-3.39,1.52-3.39,3.39c0,1.87,1.52,3.39,3.39,3.39c1.87,0,3.39-1.52,3.39-3.39 C333.13,259.06,331.61,257.55,329.74,257.55z" fill="inherit"/><path d="M343.29,203.38c-1.87,0-3.39,1.52-3.39,3.39s1.52,3.39,3.39,3.39c1.87,0,3.39-1.52,3.39-3.39 S345.16,203.38,343.29,203.38z" fill="inherit"/><path d="M343.29,216.92c-1.87,0-3.39,1.52-3.39,3.39c0,1.87,1.52,3.39,3.39,3.39c1.87,0,3.39-1.52,3.39-3.39 C346.67,218.43,345.16,216.92,343.29,216.92z" fill="inherit"/><path d="M343.29,230.46c-1.87,0-3.39,1.52-3.39,3.39c0,1.87,1.52,3.39,3.39,3.39c1.87,0,3.39-1.52,3.39-3.39 C346.67,231.97,345.16,230.46,343.29,230.46z" fill="inherit"/><path d="M343.29,244c-1.87,0-3.39,1.52-3.39,3.39c0,1.87,1.52,3.39,3.39,3.39c1.87,0,3.39-1.52,3.39-3.39 C346.67,245.51,345.16,244,343.29,244z" fill="inherit"/><path d="M343.29,257.54c-1.87,0-3.39,1.52-3.39,3.39c0,1.87,1.52,3.39,3.39,3.39c1.87,0,3.39-1.52,3.39-3.39 C346.67,259.06,345.16,257.54,343.29,257.54z" fill="inherit"/><path d="M356.83,203.38c-1.87,0-3.39,1.52-3.39,3.39s1.52,3.39,3.39,3.39s3.39-1.52,3.39-3.39 S358.7,203.38,356.83,203.38z" fill="inherit"/><path d="M356.83,216.92c-1.87,0-3.39,1.52-3.39,3.39s1.52,3.39,3.39,3.39s3.39-1.52,3.39-3.39 S358.7,216.92,356.83,216.92z" fill="inherit"/><path d="M356.83,230.46c-1.87,0-3.39,1.52-3.39,3.39c0,1.87,1.52,3.39,3.39,3.39s3.39-1.52,3.39-3.39 C360.21,231.98,358.7,230.46,356.83,230.46z" fill="inherit"/><path d="M356.83,244c-1.87,0-3.39,1.52-3.39,3.39c0,1.87,1.52,3.39,3.39,3.39s3.39-1.52,3.39-3.39 C360.21,245.52,358.7,244,356.83,244z" fill="inherit"/><path d="M356.83,257.55c-1.87,0-3.39,1.52-3.39,3.39s1.52,3.39,3.39,3.39s3.39-1.52,3.39-3.39 S358.7,257.55,356.83,257.55z" fill="inherit"/><path d="M370.37,203.38c-1.87,0-3.39,1.52-3.39,3.39s1.52,3.39,3.39,3.39c1.87,0,3.39-1.52,3.39-3.39 S372.24,203.38,370.37,203.38z" fill="inherit"/><path d="M370.37,216.92c-1.87,0-3.39,1.52-3.39,3.39c0,1.87,1.52,3.39,3.39,3.39c1.87,0,3.39-1.52,3.39-3.39 C373.76,218.43,372.24,216.92,370.37,216.92z" fill="inherit"/><path d="M370.37,230.46c-1.87,0-3.39,1.52-3.39,3.39c0,1.87,1.52,3.39,3.39,3.39c1.87,0,3.39-1.52,3.39-3.39 C373.76,231.98,372.24,230.46,370.37,230.46z" fill="inherit"/><path d="M370.37,244c-1.87,0-3.39,1.52-3.39,3.39c0,1.87,1.52,3.39,3.39,3.39c1.87,0,3.39-1.52,3.39-3.39 C373.76,245.52,372.24,244,370.37,244z" fill="inherit"/><path d="M370.37,257.55c-1.87,0-3.39,1.52-3.39,3.39c0,1.87,1.52,3.39,3.39,3.39c1.87,0,3.39-1.52,3.39-3.39 C373.76,259.06,372.24,257.55,370.37,257.55z" fill="inherit"/><path d="M383.92,210.15c0.01,0,0.02,0,0.02,0l-3.05-4.87c-0.22,0.45-0.36,0.95-0.36,1.48 C380.53,208.64,382.05,210.15,383.92,210.15z" fill="inherit"/><path d="M383.92,216.92c-1.87,0-3.39,1.52-3.39,3.39c0,1.87,1.52,3.39,3.39,3.39c1.87,0,3.39-1.52,3.39-3.39 C387.3,218.43,385.79,216.92,383.92,216.92z" fill="inherit"/><path d="M383.92,230.46c-1.87,0-3.39,1.52-3.39,3.39c0,1.87,1.52,3.39,3.39,3.39c1.87,0,3.39-1.52,3.39-3.39 C387.3,231.98,385.79,230.46,383.92,230.46z" fill="inherit"/><path d="M383.92,244c-1.87,0-3.39,1.52-3.39,3.39c0,1.87,1.52,3.39,3.39,3.39c1.87,0,3.39-1.52,3.39-3.39 C387.3,245.52,385.79,244,383.92,244z" fill="inherit"/><path d="M383.92,257.55c-1.87,0-3.39,1.52-3.39,3.39c0,1.87,1.52,3.39,3.39,3.39c1.87,0,3.39-1.52,3.39-3.39 C387.3,259.06,385.79,257.55,383.92,257.55z" fill="inherit"/><path d="M263.5,270.28c-1.87,0-3.39,1.52-3.39,3.39c0,1.87,1.52,3.39,3.39,3.39c1.87,0,3.39-1.52,3.39-3.39 C266.89,271.79,265.37,270.28,263.5,270.28z" fill="inherit"/><path d="M263.5,283.81c-1.87,0-3.39,1.52-3.39,3.39c0,1.87,1.52,3.39,3.39,3.39c1.87,0,3.39-1.52,3.39-3.39 C266.89,285.33,265.37,283.81,263.5,283.81z" fill="inherit"/><path d="M263.5,297.36c-1.87,0-3.39,1.52-3.39,3.39s1.52,3.39,3.39,3.39c1.87,0,3.39-1.52,3.39-3.39 S265.37,297.36,263.5,297.36z" fill="inherit"/><path d="M263.5,310.9c-1.87,0-3.39,1.52-3.39,3.39s1.52,3.39,3.39,3.39c1.87,0,3.39-1.52,3.39-3.39 S265.37,310.9,263.5,310.9z" fill="inherit"/><path d="M263.5,324.44c-1.87,0-3.39,1.52-3.39,3.39c0,1.87,1.52,3.39,3.39,3.39c1.87,0,3.39-1.52,3.39-3.39 C266.89,325.96,265.37,324.44,263.5,324.44z" fill="inherit"/><path d="M277.04,270.28c-1.87,0-3.39,1.52-3.39,3.39c0,1.87,1.52,3.39,3.39,3.39s3.39-1.52,3.39-3.39 C280.43,271.79,278.91,270.28,277.04,270.28z" fill="inherit"/><path d="M277.04,283.81c-1.87,0-3.39,1.52-3.39,3.39c0,1.87,1.52,3.39,3.39,3.39s3.39-1.52,3.39-3.39 C280.43,285.33,278.91,283.81,277.04,283.81z" fill="inherit"/><path d="M277.04,297.36c-1.87,0-3.39,1.52-3.39,3.39s1.52,3.39,3.39,3.39s3.39-1.52,3.39-3.39 S278.91,297.36,277.04,297.36z" fill="inherit"/><path d="M277.04,310.9c-1.87,0-3.39,1.52-3.39,3.39s1.52,3.39,3.39,3.39s3.39-1.52,3.39-3.39 S278.91,310.9,277.04,310.9z" fill="inherit"/><path d="M277.04,324.44c-1.87,0-3.39,1.52-3.39,3.39c0,1.87,1.52,3.39,3.39,3.39s3.39-1.52,3.39-3.39 C280.43,325.96,278.91,324.44,277.04,324.44z" fill="inherit"/><path d="M290.58,270.28c-1.87,0-3.39,1.52-3.39,3.39c0,1.87,1.52,3.39,3.39,3.39s3.39-1.52,3.39-3.39 C293.97,271.79,292.45,270.28,290.58,270.28z" fill="inherit"/><path d="M290.58,283.82c-1.87,0-3.39,1.52-3.39,3.39c0,1.87,1.52,3.39,3.39,3.39s3.39-1.52,3.39-3.39 C293.97,285.33,292.45,283.82,290.58,283.82z" fill="inherit"/><path d="M290.58,297.36c-1.87,0-3.39,1.52-3.39,3.39c0,1.87,1.52,3.39,3.39,3.39s3.39-1.52,3.39-3.39 C293.97,298.88,292.45,297.36,290.58,297.36z" fill="inherit"/><path d="M290.58,310.9c-1.87,0-3.39,1.52-3.39,3.39c0,1.87,1.52,3.39,3.39,3.39s3.39-1.52,3.39-3.39 C293.97,312.41,292.45,310.9,290.58,310.9z" fill="inherit"/><path d="M290.58,324.44c-1.87,0-3.39,1.52-3.39,3.39c0,1.87,1.52,3.39,3.39,3.39s3.39-1.52,3.39-3.39 C293.97,325.96,292.45,324.44,290.58,324.44z" fill="inherit"/><circle cx="304.13" cy="273.66" fill="inherit" r="3.39"/><circle cx="304.13" cy="287.2" fill="inherit" r="3.39"/><circle cx="304.13" cy="300.74" fill="inherit" r="3.39"/><path d="M304.13,310.9c-1.87,0-3.39,1.52-3.39,3.39s1.52,3.39,3.39,3.39s3.39-1.52,3.39-3.39 S306,310.9,304.13,310.9z" fill="inherit"/><path d="M304.13,324.44c-1.87,0-3.39,1.52-3.39,3.39c0,1.87,1.52,3.39,3.39,3.39s3.39-1.52,3.39-3.39 C307.51,325.96,306,324.44,304.13,324.44z" fill="inherit"/><path d="M317.67,270.28c-1.87,0-3.39,1.52-3.39,3.39c0,1.87,1.52,3.39,3.39,3.39c1.87,0,3.39-1.52,3.39-3.39 C321.06,271.79,319.54,270.28,317.67,270.28z" fill="inherit"/><path d="M317.67,283.81c-1.87,0-3.39,1.52-3.39,3.39c0,1.87,1.52,3.39,3.39,3.39c1.87,0,3.39-1.52,3.39-3.39 C321.06,285.33,319.54,283.81,317.67,283.81z" fill="inherit"/><path d="M317.67,297.36c-1.87,0-3.39,1.52-3.39,3.39s1.52,3.39,3.39,3.39c1.87,0,3.39-1.52,3.39-3.39 S319.54,297.36,317.67,297.36z" fill="inherit"/><path d="M317.67,310.9c-1.87,0-3.39,1.52-3.39,3.39s1.52,3.39,3.39,3.39c1.87,0,3.39-1.52,3.39-3.39 S319.54,310.9,317.67,310.9z" fill="inherit"/><path d="M317.67,324.44c-1.87,0-3.39,1.52-3.39,3.39c0,1.87,1.52,3.39,3.39,3.39c1.87,0,3.39-1.52,3.39-3.39 C321.06,325.96,319.54,324.44,317.67,324.44z" fill="inherit"/><path d="M329.74,270.28c-1.87,0-3.39,1.52-3.39,3.39c0,1.87,1.52,3.39,3.39,3.39c1.87,0,3.39-1.52,3.39-3.39 C333.13,271.79,331.61,270.28,329.74,270.28z" fill="inherit"/><path d="M329.74,283.81c-1.87,0-3.39,1.52-3.39,3.39c0,1.87,1.52,3.39,3.39,3.39c1.87,0,3.39-1.52,3.39-3.39 C333.13,285.33,331.61,283.81,329.74,283.81z" fill="inherit"/><path d="M329.74,297.36c-1.87,0-3.39,1.52-3.39,3.39s1.52,3.39,3.39,3.39c1.87,0,3.39-1.52,3.39-3.39 S331.61,297.36,329.74,297.36z" fill="inherit"/><path d="M329.74,310.9c-1.87,0-3.39,1.52-3.39,3.39s1.52,3.39,3.39,3.39c1.87,0,3.39-1.52,3.39-3.39 S331.61,310.9,329.74,310.9z" fill="inherit"/><path d="M329.74,324.44c-1.87,0-3.39,1.52-3.39,3.39s1.52,3.39,3.39,3.39c1.87,0,3.39-1.52,3.39-3.39 S331.61,324.44,329.74,324.44z" fill="inherit"/><path d="M343.29,270.28c-1.87,0-3.39,1.52-3.39,3.39c0,1.87,1.52,3.39,3.39,3.39c1.87,0,3.39-1.52,3.39-3.39 C346.67,271.79,345.16,270.28,343.29,270.28z" fill="inherit"/><path d="M343.29,283.81c-1.87,0-3.39,1.52-3.39,3.39c0,1.87,1.52,3.39,3.39,3.39c1.87,0,3.39-1.52,3.39-3.39 C346.67,285.33,345.16,283.81,343.29,283.81z" fill="inherit"/><path d="M343.29,297.35c-1.87,0-3.39,1.52-3.39,3.39s1.52,3.39,3.39,3.39c1.87,0,3.39-1.52,3.39-3.39 S345.16,297.35,343.29,297.35z" fill="inherit"/><path d="M343.29,310.89c-1.87,0-3.39,1.52-3.39,3.39s1.52,3.39,3.39,3.39c1.87,0,3.39-1.52,3.39-3.39 S345.16,310.89,343.29,310.89z" fill="inherit"/><path d="M343.29,324.44c-1.87,0-3.39,1.52-3.39,3.39s1.52,3.39,3.39,3.39c1.87,0,3.39-1.52,3.39-3.39 S345.16,324.44,343.29,324.44z" fill="inherit"/><path d="M356.83,270.28c-1.87,0-3.39,1.52-3.39,3.39c0,1.87,1.52,3.39,3.39,3.39s3.39-1.52,3.39-3.39 C360.21,271.79,358.7,270.28,356.83,270.28z" fill="inherit"/><path d="M356.83,283.82c-1.87,0-3.39,1.52-3.39,3.39c0,1.87,1.52,3.39,3.39,3.39s3.39-1.52,3.39-3.39 C360.21,285.33,358.7,283.82,356.83,283.82z" fill="inherit"/><path d="M356.83,297.36c-1.87,0-3.39,1.52-3.39,3.39c0,1.87,1.52,3.39,3.39,3.39s3.39-1.52,3.39-3.39 C360.21,298.87,358.7,297.36,356.83,297.36z" fill="inherit"/><path d="M356.83,310.9c-1.87,0-3.39,1.52-3.39,3.39c0,1.87,1.52,3.39,3.39,3.39s3.39-1.52,3.39-3.39 C360.21,312.41,358.7,310.9,356.83,310.9z" fill="inherit"/><path d="M356.83,324.44c-1.87,0-3.39,1.52-3.39,3.39c0,1.87,1.52,3.39,3.39,3.39s3.39-1.52,3.39-3.39 C360.21,325.96,358.7,324.44,356.83,324.44z" fill="inherit"/><path d="M370.37,270.28c-1.87,0-3.39,1.52-3.39,3.39c0,1.87,1.52,3.39,3.39,3.39c1.87,0,3.39-1.52,3.39-3.39 C373.76,271.79,372.24,270.28,370.37,270.28z" fill="inherit"/><path d="M370.37,283.81c-1.87,0-3.39,1.52-3.39,3.39c0,1.87,1.52,3.39,3.39,3.39c1.87,0,3.39-1.52,3.39-3.39 C373.76,285.33,372.24,283.81,370.37,283.81z" fill="inherit"/><path d="M370.37,297.36c-1.87,0-3.39,1.52-3.39,3.39s1.52,3.39,3.39,3.39c1.87,0,3.39-1.52,3.39-3.39 S372.24,297.36,370.37,297.36z" fill="inherit"/><path d="M370.37,310.9c-1.87,0-3.39,1.52-3.39,3.39s1.52,3.39,3.39,3.39c1.87,0,3.39-1.52,3.39-3.39 S372.24,310.9,370.37,310.9z" fill="inherit"/><path d="M370.37,324.44c-1.87,0-3.39,1.52-3.39,3.39s1.52,3.39,3.39,3.39c1.87,0,3.39-1.52,3.39-3.39 S372.24,324.44,370.37,324.44z" fill="inherit"/><path d="M383.92,270.28c-1.87,0-3.39,1.52-3.39,3.39c0,1.87,1.52,3.39,3.39,3.39c1.87,0,3.39-1.52,3.39-3.39 C387.3,271.79,385.79,270.28,383.92,270.28z" fill="inherit"/><path d="M383.92,283.81c-1.87,0-3.39,1.52-3.39,3.39c0,1.87,1.52,3.39,3.39,3.39c1.87,0,3.39-1.52,3.39-3.39 C387.3,285.33,385.79,283.81,383.92,283.81z" fill="inherit"/><path d="M383.92,297.36c-1.87,0-3.39,1.52-3.39,3.39s1.52,3.39,3.39,3.39c1.87,0,3.39-1.52,3.39-3.39 S385.79,297.36,383.92,297.36z" fill="inherit"/><path d="M383.92,310.9c-1.87,0-3.39,1.52-3.39,3.39s1.52,3.39,3.39,3.39c1.87,0,3.39-1.52,3.39-3.39 S385.79,310.9,383.92,310.9z" fill="inherit"/><path d="M383.92,324.44c-1.87,0-3.39,1.52-3.39,3.39s1.52,3.39,3.39,3.39c1.87,0,3.39-1.52,3.39-3.39 S385.79,324.44,383.92,324.44z" fill="inherit"/><path d="M397.46,237.23c1.08,0,2.04-0.52,2.66-1.31l-3.38-5.38c-1.52,0.33-2.67,1.68-2.67,3.31 C394.07,235.72,395.59,237.23,397.46,237.23z" fill="inherit"/><path d="M397.46,244c-1.87,0-3.39,1.52-3.39,3.39c0,1.87,1.52,3.39,3.39,3.39c1.87,0,3.39-1.52,3.39-3.39 C400.84,245.52,399.33,244,397.46,244z" fill="inherit"/><path d="M397.46,257.55c-1.87,0-3.39,1.52-3.39,3.39c0,1.87,1.52,3.39,3.39,3.39c1.87,0,3.39-1.52,3.39-3.39 C400.84,259.06,399.33,257.55,397.46,257.55z" fill="inherit"/><path d="M409.03,250.13l-1.36-2.17C407.83,248.86,408.33,249.62,409.03,250.13z" fill="inherit"/><path d="M411,257.54c-1.87,0-3.39,1.52-3.39,3.39c0,1.87,1.52,3.39,3.39,3.39c1.87,0,3.39-1.52,3.39-3.39 C414.39,259.06,412.87,257.54,411,257.54z" fill="inherit"/><path d="M397.46,270.28c-1.87,0-3.39,1.52-3.39,3.39c0,1.87,1.52,3.39,3.39,3.39c1.87,0,3.39-1.52,3.39-3.39 C400.84,271.79,399.33,270.28,397.46,270.28z" fill="inherit"/><path d="M397.46,283.81c-1.87,0-3.39,1.52-3.39,3.39c0,1.87,1.52,3.39,3.39,3.39c1.87,0,3.39-1.52,3.39-3.39 C400.84,285.33,399.33,283.81,397.46,283.81z" fill="inherit"/><path d="M397.46,297.36c-1.87,0-3.39,1.52-3.39,3.39s1.52,3.39,3.39,3.39c1.87,0,3.39-1.52,3.39-3.39 S399.33,297.36,397.46,297.36z" fill="inherit"/><path d="M397.46,310.9c-1.87,0-3.39,1.52-3.39,3.39s1.52,3.39,3.39,3.39c1.87,0,3.39-1.52,3.39-3.39 S399.33,310.9,397.46,310.9z" fill="inherit"/><path d="M397.46,324.44c-1.87,0-3.39,1.52-3.39,3.39c0,1.87,1.52,3.39,3.39,3.39c1.87,0,3.39-1.52,3.39-3.39 C400.84,325.96,399.33,324.44,397.46,324.44z" fill="inherit"/><circle cx="411" cy="273.66" fill="inherit" r="3.39"/><path d="M411,283.81c-1.87,0-3.39,1.52-3.39,3.39c0,1.87,1.52,3.39,3.39,3.39c1.87,0,3.39-1.52,3.39-3.39 C414.39,285.33,412.87,283.81,411,283.81z" fill="inherit"/><path d="M411,297.36c-1.87,0-3.39,1.52-3.39,3.39s1.52,3.39,3.39,3.39c1.87,0,3.39-1.52,3.39-3.39 S412.87,297.36,411,297.36z" fill="inherit"/><circle cx="411" cy="314.28" fill="inherit" r="3.39"/><path d="M411,324.44c-1.87,0-3.39,1.52-3.39,3.39c0,1.87,1.52,3.39,3.39,3.39c1.87,0,3.39-1.52,3.39-3.39 C414.39,325.96,412.87,324.44,411,324.44z" fill="inherit"/><path d="M424.54,277.05c0.44,0,0.85-0.09,1.24-0.24l-3.53-5.62c-0.67,0.62-1.09,1.5-1.09,2.48 C421.16,275.53,422.67,277.05,424.54,277.05z" fill="inherit"/><path d="M424.54,283.82c-1.87,0-3.39,1.52-3.39,3.39c0,1.87,1.52,3.39,3.39,3.39s3.39-1.52,3.39-3.39 C427.93,285.33,426.41,283.82,424.54,283.82z" fill="inherit"/><path d="M424.54,297.36c-1.87,0-3.39,1.52-3.39,3.39c0,1.87,1.52,3.39,3.39,3.39s3.39-1.52,3.39-3.39 C427.93,298.88,426.41,297.36,424.54,297.36z" fill="inherit"/><path d="M424.54,310.9c-1.87,0-3.39,1.52-3.39,3.39c0,1.87,1.52,3.39,3.39,3.39s3.39-1.52,3.39-3.39 C427.93,312.41,426.41,310.9,424.54,310.9z" fill="inherit"/><path d="M424.54,324.44c-1.87,0-3.39,1.52-3.39,3.39c0,1.87,1.52,3.39,3.39,3.39s3.39-1.52,3.39-3.39 C427.93,325.96,426.41,324.44,424.54,324.44z" fill="inherit"/><path d="M438.09,304.13c1.57,0,2.87-1.07,3.26-2.52l-2.63-4.19c-0.2-0.04-0.41-0.06-0.63-0.06 c-1.87,0-3.39,1.52-3.39,3.39S436.22,304.13,438.09,304.13z" fill="inherit"/><path d="M438.09,310.9c-1.87,0-3.39,1.52-3.39,3.39s1.52,3.39,3.39,3.39c1.87,0,3.39-1.52,3.39-3.39 S439.96,310.9,438.09,310.9z" fill="inherit"/><path d="M438.09,324.44c-1.87,0-3.39,1.52-3.39,3.39c0,1.87,1.52,3.39,3.39,3.39c1.87,0,3.39-1.52,3.39-3.39 C441.47,325.96,439.96,324.44,438.09,324.44z" fill="inherit"/><path d="M451.41,317.65l-2.91-4.64c-0.16,0.39-0.25,0.82-0.25,1.28C448.24,316.08,449.65,317.53,451.41,317.65z" fill="inherit"/><path d="M451.63,324.44c-1.87,0-3.39,1.52-3.39,3.39c0,1.87,1.52,3.39,3.39,3.39c1.87,0,3.39-1.52,3.39-3.39 C455.02,325.96,453.5,324.44,451.63,324.44z" fill="inherit"/><path d="M263.5,336.51c-1.87,0-3.39,1.52-3.39,3.39c0,1.87,1.52,3.39,3.39,3.39c1.87,0,3.39-1.52,3.39-3.39 C266.89,338.03,265.37,336.51,263.5,336.51z" fill="inherit"/><path d="M263.5,350.05c-1.87,0-3.39,1.52-3.39,3.39s1.52,3.39,3.39,3.39c1.87,0,3.39-1.52,3.39-3.39 S265.37,350.05,263.5,350.05z" fill="inherit"/><path d="M263.5,363.59c-1.87,0-3.39,1.52-3.39,3.39c0,1.87,1.52,3.39,3.39,3.39c1.87,0,3.39-1.52,3.39-3.39 C266.89,365.11,265.37,363.59,263.5,363.59z" fill="inherit"/><path d="M263.5,377.13c-1.87,0-3.39,1.52-3.39,3.39c0,1.87,1.52,3.39,3.39,3.39c1.87,0,3.39-1.52,3.39-3.39 C266.89,378.65,265.37,377.13,263.5,377.13z" fill="inherit"/><path d="M263.5,390.68c-1.87,0-3.39,1.52-3.39,3.39c0,1.87,1.52,3.39,3.39,3.39c1.87,0,3.39-1.52,3.39-3.39 C266.89,392.2,265.37,390.68,263.5,390.68z" fill="inherit"/><path d="M277.04,336.51c-1.87,0-3.39,1.52-3.39,3.39c0,1.87,1.52,3.39,3.39,3.39s3.39-1.52,3.39-3.39 C280.43,338.03,278.91,336.51,277.04,336.51z" fill="inherit"/><path d="M277.04,350.05c-1.87,0-3.39,1.52-3.39,3.39c0,1.87,1.52,3.39,3.39,3.39s3.39-1.52,3.39-3.39 C280.43,351.57,278.91,350.05,277.04,350.05z" fill="inherit"/><path d="M277.04,363.59c-1.87,0-3.39,1.52-3.39,3.39s1.52,3.39,3.39,3.39s3.39-1.52,3.39-3.39 S278.91,363.59,277.04,363.59z" fill="inherit"/><path d="M277.04,377.13c-1.87,0-3.39,1.52-3.39,3.39s1.52,3.39,3.39,3.39s3.39-1.52,3.39-3.39 S278.91,377.13,277.04,377.13z" fill="inherit"/><path d="M277.04,390.68c-1.87,0-3.39,1.52-3.39,3.39s1.52,3.39,3.39,3.39s3.39-1.52,3.39-3.39 S278.91,390.68,277.04,390.68z" fill="inherit"/><path d="M290.58,336.51c-1.87,0-3.39,1.52-3.39,3.39c0,1.87,1.52,3.39,3.39,3.39s3.39-1.52,3.39-3.39 C293.97,338.03,292.45,336.51,290.58,336.51z" fill="inherit"/><path d="M290.58,350.05c-1.87,0-3.39,1.52-3.39,3.39c0,1.87,1.52,3.39,3.39,3.39s3.39-1.52,3.39-3.39 C293.97,351.57,292.45,350.05,290.58,350.05z" fill="inherit"/><path d="M290.58,363.6c-1.87,0-3.39,1.52-3.39,3.39s1.52,3.39,3.39,3.39s3.39-1.52,3.39-3.39 S292.45,363.6,290.58,363.6z" fill="inherit"/><path d="M290.58,377.14c-1.87,0-3.39,1.52-3.39,3.39s1.52,3.39,3.39,3.39s3.39-1.52,3.39-3.39 S292.45,377.14,290.58,377.14z" fill="inherit"/><path d="M290.58,390.68c-1.87,0-3.39,1.52-3.39,3.39c0,1.87,1.52,3.39,3.39,3.39s3.39-1.52,3.39-3.39 C293.97,392.2,292.45,390.68,290.58,390.68z" fill="inherit"/><circle cx="304.13" cy="339.9" fill="inherit" r="3.39"/><path d="M304.13,350.05c-1.87,0-3.39,1.52-3.39,3.39s1.52,3.39,3.39,3.39s3.39-1.52,3.39-3.39 S306,350.05,304.13,350.05z" fill="inherit"/><path d="M304.13,363.59c-1.87,0-3.39,1.52-3.39,3.39c0,1.87,1.52,3.39,3.39,3.39s3.39-1.52,3.39-3.39 C307.51,365.11,306,363.59,304.13,363.59z" fill="inherit"/><path d="M304.13,377.13c-1.87,0-3.39,1.52-3.39,3.39c0,1.87,1.52,3.39,3.39,3.39s3.39-1.52,3.39-3.39 C307.51,378.65,306,377.13,304.13,377.13z" fill="inherit"/><path d="M304.13,390.68c-1.87,0-3.39,1.52-3.39,3.39c0,1.87,1.52,3.39,3.39,3.39s3.39-1.52,3.39-3.39 C307.51,392.2,306,390.68,304.13,390.68z" fill="inherit"/><path d="M317.67,336.51c-1.87,0-3.39,1.52-3.39,3.39c0,1.87,1.52,3.39,3.39,3.39c1.87,0,3.39-1.52,3.39-3.39 C321.06,338.03,319.54,336.51,317.67,336.51z" fill="inherit"/><path d="M317.67,350.05c-1.87,0-3.39,1.52-3.39,3.39s1.52,3.39,3.39,3.39c1.87,0,3.39-1.52,3.39-3.39 S319.54,350.05,317.67,350.05z" fill="inherit"/><path d="M317.67,363.59c-1.87,0-3.39,1.52-3.39,3.39c0,1.87,1.52,3.39,3.39,3.39c1.87,0,3.39-1.52,3.39-3.39 C321.06,365.11,319.54,363.59,317.67,363.59z" fill="inherit"/><path d="M317.67,377.13c-1.87,0-3.39,1.52-3.39,3.39c0,1.87,1.52,3.39,3.39,3.39c1.87,0,3.39-1.52,3.39-3.39 C321.06,378.65,319.54,377.13,317.67,377.13z" fill="inherit"/><path d="M317.67,390.68c-1.87,0-3.39,1.52-3.39,3.39c0,1.87,1.52,3.39,3.39,3.39c1.87,0,3.39-1.52,3.39-3.39 C321.06,392.2,319.54,390.68,317.67,390.68z" fill="inherit"/><path d="M329.74,336.51c-1.87,0-3.39,1.52-3.39,3.39s1.52,3.39,3.39,3.39c1.87,0,3.39-1.52,3.39-3.39 S331.61,336.51,329.74,336.51z" fill="inherit"/><path d="M329.74,350.05c-1.87,0-3.39,1.52-3.39,3.39c0,1.87,1.52,3.39,3.39,3.39c1.87,0,3.39-1.52,3.39-3.39 C333.13,351.57,331.61,350.05,329.74,350.05z" fill="inherit"/><path d="M329.74,363.59c-1.87,0-3.39,1.52-3.39,3.39s1.52,3.39,3.39,3.39c1.87,0,3.39-1.52,3.39-3.39 S331.61,363.59,329.74,363.59z" fill="inherit"/><path d="M329.74,377.13c-1.87,0-3.39,1.52-3.39,3.39s1.52,3.39,3.39,3.39c1.87,0,3.39-1.52,3.39-3.39 S331.61,377.13,329.74,377.13z" fill="inherit"/><path d="M329.74,390.68c-1.87,0-3.39,1.52-3.39,3.39c0,1.87,1.52,3.39,3.39,3.39c1.87,0,3.39-1.52,3.39-3.39 C333.13,392.19,331.61,390.68,329.74,390.68z" fill="inherit"/><path d="M343.29,336.51c-1.87,0-3.39,1.52-3.39,3.39s1.52,3.39,3.39,3.39c1.87,0,3.39-1.52,3.39-3.39 S345.16,336.51,343.29,336.51z" fill="inherit"/><path d="M343.29,350.05c-1.87,0-3.39,1.52-3.39,3.39c0,1.87,1.52,3.39,3.39,3.39c1.87,0,3.39-1.52,3.39-3.39 C346.67,351.56,345.16,350.05,343.29,350.05z" fill="inherit"/><path d="M343.29,363.59c-1.87,0-3.39,1.52-3.39,3.39s1.52,3.39,3.39,3.39c1.87,0,3.39-1.52,3.39-3.39 S345.16,363.59,343.29,363.59z" fill="inherit"/><path d="M343.29,377.13c-1.87,0-3.39,1.52-3.39,3.39c0,1.87,1.52,3.39,3.39,3.39c1.87,0,3.39-1.52,3.39-3.39 C346.67,378.65,345.16,377.13,343.29,377.13z" fill="inherit"/><path d="M343.29,390.68c-1.87,0-3.39,1.52-3.39,3.39c0,1.87,1.52,3.39,3.39,3.39c1.87,0,3.39-1.52,3.39-3.39 C346.67,392.19,345.16,390.68,343.29,390.68z" fill="inherit"/><path d="M356.83,336.51c-1.87,0-3.39,1.52-3.39,3.39s1.52,3.39,3.39,3.39s3.39-1.52,3.39-3.39 S358.7,336.51,356.83,336.51z" fill="inherit"/><path d="M356.83,350.05c-1.87,0-3.39,1.52-3.39,3.39c0,1.87,1.52,3.39,3.39,3.39s3.39-1.52,3.39-3.39 C360.21,351.57,358.7,350.05,356.83,350.05z" fill="inherit"/><path d="M356.83,363.59c-1.87,0-3.39,1.52-3.39,3.39s1.52,3.39,3.39,3.39s3.39-1.52,3.39-3.39 S358.7,363.59,356.83,363.59z" fill="inherit"/><path d="M356.83,377.13c-1.87,0-3.39,1.52-3.39,3.39c0,1.87,1.52,3.39,3.39,3.39s3.39-1.52,3.39-3.39 C360.21,378.65,358.7,377.13,356.83,377.13z" fill="inherit"/><path d="M356.83,390.68c-1.87,0-3.39,1.52-3.39,3.39c0,1.87,1.52,3.39,3.39,3.39s3.39-1.52,3.39-3.39 C360.21,392.2,358.7,390.68,356.83,390.68z" fill="inherit"/><path d="M370.37,336.51c-1.87,0-3.39,1.52-3.39,3.39s1.52,3.39,3.39,3.39c1.87,0,3.39-1.52,3.39-3.39 S372.24,336.51,370.37,336.51z" fill="inherit"/><path d="M370.37,350.05c-1.87,0-3.39,1.52-3.39,3.39c0,1.87,1.52,3.39,3.39,3.39c1.87,0,3.39-1.52,3.39-3.39 C373.76,351.57,372.24,350.05,370.37,350.05z" fill="inherit"/><path d="M370.37,363.59c-1.87,0-3.39,1.52-3.39,3.39s1.52,3.39,3.39,3.39c1.87,0,3.39-1.52,3.39-3.39 S372.24,363.59,370.37,363.59z" fill="inherit"/><path d="M370.37,377.13c-1.87,0-3.39,1.52-3.39,3.39s1.52,3.39,3.39,3.39c1.87,0,3.39-1.52,3.39-3.39 S372.24,377.13,370.37,377.13z" fill="inherit"/><path d="M370.37,390.68c-1.87,0-3.39,1.52-3.39,3.39c0,1.87,1.52,3.39,3.39,3.39c1.87,0,3.39-1.52,3.39-3.39 C373.76,392.19,372.24,390.68,370.37,390.68z" fill="inherit"/><path d="M383.92,336.51c-1.87,0-3.39,1.52-3.39,3.39s1.52,3.39,3.39,3.39c1.87,0,3.39-1.52,3.39-3.39 S385.79,336.51,383.92,336.51z" fill="inherit"/><path d="M383.92,350.05c-1.87,0-3.39,1.52-3.39,3.39c0,1.87,1.52,3.39,3.39,3.39c1.87,0,3.39-1.52,3.39-3.39 C387.3,351.57,385.79,350.05,383.92,350.05z" fill="inherit"/><path d="M383.92,363.59c-1.87,0-3.39,1.52-3.39,3.39s1.52,3.39,3.39,3.39c1.87,0,3.39-1.52,3.39-3.39 S385.79,363.59,383.92,363.59z" fill="inherit"/><path d="M383.92,377.13c-1.87,0-3.39,1.52-3.39,3.39s1.52,3.39,3.39,3.39c1.87,0,3.39-1.52,3.39-3.39 S385.79,377.13,383.92,377.13z" fill="inherit"/><path d="M383.92,390.68c-1.87,0-3.39,1.52-3.39,3.39c0,1.87,1.52,3.39,3.39,3.39c1.87,0,3.39-1.52,3.39-3.39 C387.3,392.19,385.79,390.68,383.92,390.68z" fill="inherit"/><path d="M397.46,336.51c-1.87,0-3.39,1.52-3.39,3.39c0,1.87,1.52,3.39,3.39,3.39c1.87,0,3.39-1.52,3.39-3.39 C400.84,338.03,399.33,336.51,397.46,336.51z" fill="inherit"/><path d="M397.46,350.05c-1.87,0-3.39,1.52-3.39,3.39s1.52,3.39,3.39,3.39c1.87,0,3.39-1.52,3.39-3.39 S399.33,350.05,397.46,350.05z" fill="inherit"/><path d="M397.46,363.59c-1.87,0-3.39,1.52-3.39,3.39c0,1.87,1.52,3.39,3.39,3.39c1.87,0,3.39-1.52,3.39-3.39 C400.84,365.11,399.33,363.59,397.46,363.59z" fill="inherit"/><path d="M397.46,377.13c-1.87,0-3.39,1.52-3.39,3.39c0,1.87,1.52,3.39,3.39,3.39c1.87,0,3.39-1.52,3.39-3.39 C400.84,378.65,399.33,377.13,397.46,377.13z" fill="inherit"/><path d="M397.46,390.68c-1.87,0-3.39,1.52-3.39,3.39c0,1.87,1.52,3.39,3.39,3.39c1.87,0,3.39-1.52,3.39-3.39 C400.84,392.2,399.33,390.68,397.46,390.68z" fill="inherit"/><circle cx="411" cy="339.9" fill="inherit" r="3.39"/><circle cx="411" cy="353.44" fill="inherit" r="3.39"/><circle cx="411" cy="366.98" fill="inherit" r="3.39"/><circle cx="411" cy="380.52" fill="inherit" r="3.39"/><circle cx="411" cy="394.06" fill="inherit" r="3.39"/><path d="M424.54,336.51c-1.87,0-3.39,1.52-3.39,3.39c0,1.87,1.52,3.39,3.39,3.39s3.39-1.52,3.39-3.39 C427.93,338.03,426.41,336.51,424.54,336.51z" fill="inherit"/><path d="M424.54,350.05c-1.87,0-3.39,1.52-3.39,3.39c0,1.87,1.52,3.39,3.39,3.39s3.39-1.52,3.39-3.39 C427.93,351.57,426.41,350.05,424.54,350.05z" fill="inherit"/><path d="M424.54,363.6c-1.87,0-3.39,1.52-3.39,3.39s1.52,3.39,3.39,3.39s3.39-1.52,3.39-3.39 S426.41,363.6,424.54,363.6z" fill="inherit"/><path d="M424.54,377.14c-1.87,0-3.39,1.52-3.39,3.39s1.52,3.39,3.39,3.39s3.39-1.52,3.39-3.39 S426.41,377.14,424.54,377.14z" fill="inherit"/><path d="M424.54,390.68c-1.87,0-3.39,1.52-3.39,3.39c0,1.87,1.52,3.39,3.39,3.39s3.39-1.52,3.39-3.39 C427.93,392.2,426.41,390.68,424.54,390.68z" fill="inherit"/><path d="M438.09,336.51c-1.87,0-3.39,1.52-3.39,3.39c0,1.87,1.52,3.39,3.39,3.39c1.87,0,3.39-1.52,3.39-3.39 C441.47,338.03,439.96,336.51,438.09,336.51z" fill="inherit"/><path d="M438.09,350.05c-1.87,0-3.39,1.52-3.39,3.39s1.52,3.39,3.39,3.39c1.87,0,3.39-1.52,3.39-3.39 S439.96,350.05,438.09,350.05z" fill="inherit"/><path d="M438.09,363.59c-1.87,0-3.39,1.52-3.39,3.39c0,1.87,1.52,3.39,3.39,3.39c1.87,0,3.39-1.52,3.39-3.39 C441.47,365.11,439.96,363.59,438.09,363.59z" fill="inherit"/><path d="M438.09,377.13c-1.87,0-3.39,1.52-3.39,3.39c0,1.87,1.52,3.39,3.39,3.39c1.87,0,3.39-1.52,3.39-3.39 C441.47,378.65,439.96,377.13,438.09,377.13z" fill="inherit"/><path d="M438.09,390.68c-1.87,0-3.39,1.52-3.39,3.39c0,1.87,1.52,3.39,3.39,3.39c1.87,0,3.39-1.52,3.39-3.39 C441.47,392.2,439.96,390.68,438.09,390.68z" fill="inherit"/><path d="M451.63,336.51c-1.87,0-3.39,1.52-3.39,3.39c0,1.87,1.52,3.39,3.39,3.39c1.87,0,3.39-1.52,3.39-3.39 C455.02,338.03,453.5,336.51,451.63,336.51z" fill="inherit"/><path d="M451.63,350.05c-1.87,0-3.39,1.52-3.39,3.39s1.52,3.39,3.39,3.39c1.87,0,3.39-1.52,3.39-3.39 S453.5,350.05,451.63,350.05z" fill="inherit"/><path d="M451.63,363.59c-1.87,0-3.39,1.52-3.39,3.39c0,1.87,1.52,3.39,3.39,3.39c1.87,0,3.39-1.52,3.39-3.39 C455.02,365.11,453.5,363.59,451.63,363.59z" fill="inherit"/><path d="M451.63,377.13c-1.87,0-3.39,1.52-3.39,3.39c0,1.87,1.52,3.39,3.39,3.39c1.87,0,3.39-1.52,3.39-3.39 C455.02,378.65,453.5,377.13,451.63,377.13z" fill="inherit"/><path d="M451.63,390.68c-1.87,0-3.39,1.52-3.39,3.39c0,1.87,1.52,3.39,3.39,3.39c1.87,0,3.39-1.52,3.39-3.39 C455.02,392.2,453.5,390.68,451.63,390.68z" fill="inherit"/><path d="M463.7,343.28c1.19,0,2.23-0.61,2.83-1.54l-3.26-5.19c-1.67,0.21-2.96,1.62-2.96,3.34 C460.32,341.77,461.83,343.28,463.7,343.28z" fill="inherit"/><path d="M463.7,350.05c-1.87,0-3.39,1.52-3.39,3.39c0,1.87,1.52,3.39,3.39,3.39c1.87,0,3.39-1.52,3.39-3.39 C467.09,351.57,465.57,350.05,463.7,350.05z" fill="inherit"/><path d="M463.7,363.59c-1.87,0-3.39,1.52-3.39,3.39s1.52,3.39,3.39,3.39c1.87,0,3.39-1.52,3.39-3.39 S465.57,363.59,463.7,363.59z" fill="inherit"/><path d="M463.7,377.13c-1.87,0-3.39,1.52-3.39,3.39s1.52,3.39,3.39,3.39c1.87,0,3.39-1.52,3.39-3.39 S465.57,377.13,463.7,377.13z" fill="inherit"/><path d="M463.7,390.68c-1.87,0-3.39,1.52-3.39,3.39c0,1.87,1.52,3.39,3.39,3.39c1.87,0,3.39-1.52,3.39-3.39 C467.09,392.19,465.57,390.68,463.7,390.68z" fill="inherit"/><path d="M475.78,356.47l-1.92-3.06c0,0.01,0,0.01,0,0.02C473.86,354.78,474.65,355.93,475.78,356.47z" fill="inherit"/><path d="M477.25,363.59c-1.87,0-3.39,1.52-3.39,3.39s1.52,3.39,3.39,3.39c1.87,0,3.39-1.52,3.39-3.39 S479.12,363.59,477.25,363.59z" fill="inherit"/><circle cx="477.25" cy="380.52" fill="inherit" r="3.39"/><circle cx="477.25" cy="394.06" fill="inherit" r="3.39"/><path d="M490.79,383.91c0.69,0,1.33-0.21,1.86-0.56l-3.59-5.72c-0.99,0.59-1.66,1.66-1.66,2.9 C487.4,382.39,488.92,383.91,490.79,383.91z" fill="inherit"/><path d="M490.79,390.68c-1.87,0-3.39,1.52-3.39,3.39c0,1.87,1.52,3.39,3.39,3.39s3.39-1.52,3.39-3.39 C494.17,392.2,492.66,390.68,490.79,390.68z" fill="inherit"/></g></svg>